<?xml version="1.0" encoding="UTF-8"?>
<svg width="512px" height="512px" viewBox="0 0 512 512" version="1.1" xmlns="http://www.w3.org/2000/svg" xmlns:xlink="http://www.w3.org/1999/xlink">
    <!-- Generator: Sketch 64 (93537) - https://sketch.com -->
    <title>email (1)</title>
    <desc>Created with Sketch.</desc>
    <g id="Page-1" stroke="none" stroke-width="1" fill="none" fill-rule="evenodd">
        <g id="email-(1)" fill-rule="nonzero">
            <path d="M356,429 C350.48,429 346,433.48 346,439 C346,444.52 350.48,449 356,449 C361.52,449 366,444.52 366,439 C366,433.48 361.52,429 356,429 Z" id="Path" fill="#000000"></path>
            <path d="M505.153,176.928 C499.441,169.983 491.002,166 482,166 L429,166 L429,30 C429,13.458 415.542,0 399,0 L113,0 C96.458,0 83,13.458 83,30 L83,166 L30,166 C20.998,166 12.559,169.983 6.851,176.923 C2.433,182.287 0,189.063 0,196 L0,482 C0,490.01 3.121,497.542 8.789,503.211 C8.808,503.23 8.828,503.247 8.847,503.266 C8.872,503.291 8.899,503.315 8.924,503.339 C14.576,508.924 22.052,512 30,512 L482,512 C489.905,512 497.341,508.956 502.983,503.428 C503.019,503.394 503.055,503.36 503.091,503.325 C503.131,503.286 503.173,503.249 503.212,503.21 C508.879,497.542 512.001,490.01 512.001,482 L512.001,196 C512.001,189.063 509.567,182.287 505.153,176.928 Z M429,186 L477.679,186 L429,225.092 L429,186 Z M103,30 C103,24.486 107.486,20 113,20 L399,20 C404.514,20 409,24.486 409,30 L409,241.153 L305.523,324.25 L262.402,288.317 C258.693,285.227 253.307,285.227 249.598,288.317 L206.477,324.25 L103,241.154 L103,30 Z M83,186 L83,225.092 L34.321,186 L83,186 Z M20,479.671 L20,200.15 L190.803,337.314 L20,479.671 Z M36.446,492 L212.972,344.873 L256,309.017 L299.028,344.872 L475.554,492 L36.446,492 Z M492,479.671 L321.198,337.313 L492,200.15 L492,479.671 Z" id="Shape" fill="#1A2F33"></path>
            <path d="M313.071,125.928 C309.166,122.024 302.834,122.024 298.928,125.928 L246,178.857 L213.071,145.928 C209.166,142.024 202.834,142.024 198.928,145.928 C195.023,149.833 195.023,156.165 198.928,160.071 L238.929,200.071 C240.882,202.023 243.441,203 246,203 C248.559,203 251.119,202.023 253.071,200.071 L313.071,140.071 C316.976,136.167 316.976,129.834 313.071,125.928 Z" id="Path" fill="#1A2F33"></path>
            <path d="M316,429 L156,429 C150.477,429 146,433.478 146,439 C146,444.522 150.477,449 156,449 L316,449 C321.523,449 326,444.522 326,439 C326,433.478 321.523,429 316,429 Z" id="Path" fill="#1A2F33"></path>
            <path d="M256,43 C195.346,43 146,92.346 146,153 C146,213.654 195.346,263 256,263 C316.654,263 366,213.654 366,153 C366,92.346 316.654,43 256,43 Z M256,243 C206.374,243 166,202.626 166,153 C166,103.374 206.374,63 256,63 C305.626,63 346,103.374 346,153 C346,202.626 305.626,243 256,243 Z" id="Shape" fill="#1A2F33"></path>
        </g>
    </g>
</svg>