<?xml version="1.0" encoding="UTF-8"?>
<svg width="512px" height="512px" viewBox="0 0 512 512" version="1.1" xmlns="http://www.w3.org/2000/svg" xmlns:xlink="http://www.w3.org/1999/xlink">
    <!-- Generator: Sketch 64 (93537) - https://sketch.com -->
    <title>phone-call (2)</title>
    <desc>Created with Sketch.</desc>
    <g id="Page-1" stroke="none" stroke-width="1" fill="none" fill-rule="evenodd">
        <g id="phone-call-(2)" fill="#1A2F33" fill-rule="nonzero">
            <path d="M129.038,0 C123.515,0 119.037,4.479 119.037,10.001 C119.037,15.524 123.515,20.002 129.038,20.002 C185.531,20.002 231.491,67.155 231.491,125.117 C231.491,130.64 235.97,135.118 241.492,135.118 C247.015,135.118 251.493,130.639 251.493,125.117 C251.493,56.127 196.56,0 129.038,0 Z" id="Path"></path>
            <path d="M129.005,47.447 C123.482,47.447 119.004,51.926 119.004,57.448 C119.004,62.971 123.482,67.449 129.005,67.449 C159.94,67.449 185.107,93.318 185.107,125.115 C185.107,130.638 189.586,135.116 195.108,135.116 C200.631,135.116 205.109,130.637 205.109,125.115 C205.11,82.289 170.969,47.447 129.005,47.447 Z" id="Path"></path>
            <path d="M129.199,91.155 C123.675,91.155 119.198,95.632 119.198,101.156 C119.198,106.679 123.677,111.157 129.199,111.157 C136.426,111.157 142.304,117.281 142.304,124.809 C142.304,130.332 146.782,134.81 152.305,134.81 C157.828,134.81 162.306,130.331 162.306,124.809 C162.307,106.252 147.454,91.155 129.199,91.155 Z" id="Path"></path>
            <path d="M458.489,79.265 L436.32,79.265 C430.797,79.265 426.319,83.743 426.319,89.266 C426.319,94.789 430.797,99.267 436.32,99.267 L458.489,99.267 C476.963,99.267 491.993,114.297 491.993,132.771 L491.993,268.53 C491.993,279.167 487.004,288.654 479.251,294.796 L479.251,268.642 C479.251,248.238 464.692,230.713 444.634,226.972 L438.169,225.767 C439.611,221.347 440.4,216.637 440.4,211.742 L440.4,188.76 C440.4,163.771 420.07,143.441 395.081,143.441 C370.092,143.441 349.763,163.771 349.763,188.76 L349.763,211.742 C349.763,216.637 350.553,221.347 351.994,225.767 L345.529,226.972 C325.47,230.712 310.912,248.237 310.912,268.642 L310.912,297.635 C300.804,291.86 293.971,280.981 293.971,268.53 L293.971,132.771 C293.971,114.297 309.001,99.267 327.475,99.267 L351.311,99.267 C356.834,99.267 361.312,94.789 361.312,89.266 C361.312,83.743 356.833,79.265 351.311,79.265 L327.475,79.265 C297.972,79.265 273.969,103.268 273.969,132.771 L273.969,268.53 C273.969,298.033 297.972,322.036 327.475,322.036 L377.801,322.036 L377.801,350.791 C377.801,354.83 380.231,358.474 383.96,360.024 C385.202,360.541 386.506,360.792 387.8,360.792 C390.392,360.792 392.941,359.784 394.852,357.886 L430.928,322.036 L458.489,322.036 C487.992,322.036 511.995,298.033 511.995,268.53 L511.995,132.771 C511.995,103.268 487.992,79.265 458.489,79.265 Z M369.764,188.76 C369.764,174.8 381.12,163.443 395.08,163.443 C409.04,163.443 420.397,174.8 420.397,188.76 L420.397,211.742 C420.397,225.702 409.04,237.059 395.08,237.059 C381.12,237.059 369.764,225.702 369.764,211.742 L369.764,188.76 Z M459.246,302.013 C458.993,302.019 458.742,302.032 458.487,302.032 L426.804,302.032 L426.804,302.034 C424.162,302.034 421.628,303.079 419.754,304.94 L397.803,326.754 L397.803,312.034 C397.803,306.511 393.324,302.033 387.802,302.033 L330.915,302.033 L330.915,268.641 C330.915,257.866 338.604,248.61 349.196,246.634 L363.295,244.005 C371.481,252.072 382.707,257.06 395.081,257.06 C407.454,257.06 418.682,252.07 426.868,244.004 L440.968,246.633 C451.561,248.609 459.249,257.864 459.249,268.641 L459.249,302.013 L459.246,302.013 Z" id="Shape"></path>
            <path d="M396.051,82.199 C394.192,80.329 391.611,79.269 388.981,79.269 C386.351,79.269 383.77,80.329 381.91,82.199 C380.05,84.05 378.98,86.631 378.98,89.27 C378.98,91.9 380.049,94.481 381.91,96.341 C383.77,98.2 386.35,99.271 388.981,99.271 C391.611,99.271 394.192,98.201 396.051,96.341 C397.911,94.471 398.982,91.901 398.982,89.27 C398.982,86.63 397.912,84.059 396.051,82.199 Z" id="Path"></path>
            <path d="M185.878,336.437 C184.018,334.577 181.448,333.507 178.807,333.507 C176.177,333.507 173.596,334.577 171.737,336.437 C169.877,338.297 168.806,340.877 168.806,343.508 C168.806,346.148 169.876,348.719 171.737,350.579 C173.606,352.449 176.177,353.518 178.807,353.518 C181.437,353.518 184.018,352.449 185.878,350.579 C187.748,348.719 188.808,346.147 188.808,343.508 C188.808,340.878 187.748,338.298 185.878,336.437 Z" id="Path"></path>
            <path d="M404.784,426.87 L328.164,350.249 C317.964,340.049 301.918,338.557 290.014,346.698 L241.112,380.136 C237.143,382.849 231.797,382.352 228.396,378.951 L212.225,362.779 C208.321,358.876 201.99,358.875 198.08,362.779 C194.175,366.684 194.175,373.016 198.08,376.924 L214.251,393.096 C224.451,403.295 240.495,404.79 252.401,396.647 L301.303,363.21 C305.27,360.497 310.618,360.993 314.019,364.394 L390.64,441.015 C394.539,444.913 394.538,451.259 390.639,455.16 C341.507,504.292 261.562,504.292 212.43,455.16 L56.848,299.576 C33.046,275.775 19.94,244.131 19.94,210.471 C19.94,176.811 33.047,145.166 56.849,121.364 C58.738,119.475 61.249,118.436 63.92,118.436 C66.592,118.436 69.104,119.476 70.992,121.365 L147.612,197.986 C151.011,201.385 151.509,206.734 148.797,210.702 L115.361,259.604 C107.218,271.509 108.712,287.553 118.911,297.754 L143.219,322.062 C147.125,325.966 153.456,325.966 157.364,322.062 C161.269,318.157 161.269,311.824 157.364,307.917 L133.056,283.609 C129.657,280.21 129.159,274.862 131.872,270.894 L165.309,221.992 C173.45,210.086 171.956,194.041 161.757,183.842 L85.137,107.221 C73.439,95.523 54.404,95.523 42.704,107.221 C-14.227,164.153 -14.227,256.788 42.704,313.72 L198.286,469.301 C226.752,497.767 264.143,512 301.534,512 C338.926,512 376.317,497.766 404.783,469.301 C416.481,457.603 416.481,438.569 404.784,426.87 Z" id="Path"></path>
            <path d="M134.727,245.919 L74.101,185.293 C70.194,181.389 63.863,181.389 59.956,185.293 C56.051,189.199 56.051,195.532 59.956,199.438 L120.583,260.064 C122.536,262.016 125.094,262.993 127.655,262.993 C130.214,262.993 132.774,262.016 134.727,260.064 C138.632,256.158 138.632,249.825 134.727,245.919 Z" id="Path"></path>
            <path d="M366.761,477.952 L302.972,414.163 C299.065,410.259 292.734,410.259 288.827,414.163 C284.922,418.069 284.922,424.402 288.827,428.308 L352.616,492.097 C354.569,494.049 357.127,495.026 359.688,495.026 C362.247,495.026 364.807,494.049 366.761,492.097 C370.666,488.19 370.666,481.858 366.761,477.952 Z" id="Path"></path>
        </g>
    </g>
</svg>