<?xml version="1.0" encoding="UTF-8"?>
<svg width="485px" height="512px" viewBox="0 0 485 512" version="1.1" xmlns="http://www.w3.org/2000/svg" xmlns:xlink="http://www.w3.org/1999/xlink">
    <!-- Generator: Sketch 64 (93537) - https://sketch.com -->
    <title>maps-and-location</title>
    <desc>Created with Sketch.</desc>
    <g id="Page-1" stroke="none" stroke-width="1" fill="none" fill-rule="evenodd">
        <g id="maps-and-location" fill="#1A2F33" fill-rule="nonzero">
            <path d="M480.425781,216.160156 C478.074219,214.261719 474.992188,213.527344 472.042969,214.160156 L319.425781,246.8125 L302.308594,243.152344 L347.472656,152.6875 C347.546875,152.539062 347.617188,152.390625 347.683594,152.242188 C353.746094,138.441406 356.820312,123.757812 356.820312,108.59375 C356.820312,48.714844 308.109375,0 248.230469,0 C188.351562,0 139.636719,48.714844 139.636719,108.59375 C139.636719,123.757812 142.710938,138.441406 148.777344,152.242188 C148.84375,152.390625 148.910156,152.539062 148.984375,152.6875 L181.21875,217.242188 L166.804688,214.160156 C166.671875,214.128906 166.535156,214.117188 166.398438,214.097656 C166.203125,214.0625 166.011719,214.027344 165.816406,214.003906 C165.636719,213.984375 165.460938,213.980469 165.285156,213.96875 C165.089844,213.957031 164.898438,213.941406 164.707031,213.941406 C164.523438,213.941406 164.34375,213.957031 164.160156,213.964844 C163.972656,213.976562 163.785156,213.984375 163.601562,214.003906 C163.410156,214.027344 163.222656,214.0625 163.035156,214.09375 C162.894531,214.117188 162.757812,214.128906 162.617188,214.15625 L7.90625,247.261719 C3.296875,248.246094 -5.68434189e-14,252.324219 -5.68434189e-14,257.039062 L-5.68434189e-14,339.519531 C-5.68434189e-14,345.042969 4.476562,349.519531 10,349.519531 C15.523438,349.519531 20,345.042969 20,339.519531 L20,265.125 L154.710938,236.304688 L154.710938,460.8125 L20,489.632812 L20,419.519531 C20,413.996094 15.523438,409.519531 10,409.519531 C4.476562,409.519531 -5.68434189e-14,413.996094 -5.68434189e-14,419.519531 L-5.68434189e-14,502 C-5.68434189e-14,505.019531 1.363281,507.878906 3.710938,509.773438 C5.507812,511.226562 7.730469,512 10,512 C10.695312,512 11.398438,511.925781 12.09375,511.777344 L164.710938,479.125 L317.332031,511.777344 C317.386719,511.789062 317.441406,511.796875 317.496094,511.804688 C317.71875,511.847656 317.941406,511.882812 318.164062,511.910156 C318.265625,511.921875 318.363281,511.9375 318.464844,511.949219 C318.78125,511.980469 319.101562,512 319.425781,512 C319.746094,512 320.066406,511.980469 320.382812,511.949219 C320.484375,511.9375 320.585938,511.921875 320.683594,511.910156 C320.90625,511.882812 321.128906,511.847656 321.347656,511.804688 C321.402344,511.792969 321.460938,511.789062 321.515625,511.777344 L476.226562,478.675781 C480.839844,477.6875 484.136719,473.613281 484.136719,468.898438 L484.136719,386.417969 C484.136719,380.894531 479.660156,376.417969 474.136719,376.417969 C468.613281,376.417969 464.136719,380.894531 464.136719,386.417969 L464.136719,460.808594 L329.425781,489.632812 L329.425781,265.125 L464.136719,236.304688 L464.136719,306.417969 C464.136719,311.941406 468.613281,316.417969 474.136719,316.417969 C479.660156,316.417969 484.136719,311.941406 484.136719,306.417969 L484.136719,223.9375 C484.136719,220.917969 482.773438,218.0625 480.425781,216.160156 Z M159.636719,108.59375 C159.636719,59.742188 199.378906,20 248.230469,20 C297.082031,20 336.824219,59.742188 336.824219,108.59375 C336.824219,120.890625 334.347656,132.792969 329.46875,143.976562 L248.230469,306.691406 L166.992188,143.976562 C162.109375,132.792969 159.636719,120.890625 159.636719,108.59375 Z M174.710938,236.304688 L192.648438,240.140625 L239.285156,333.542969 C240.976562,336.933594 244.441406,339.078125 248.230469,339.078125 C252.019531,339.078125 255.484375,336.933594 257.179688,333.542969 L293.082031,261.628906 L309.425781,265.125 L309.425781,489.632812 L174.714844,460.808594 L174.714844,236.304688 L174.710938,236.304688 Z" id="Shape"></path>
            <path d="M312.53125,108.59375 C312.53125,73.136719 283.6875,44.289062 248.230469,44.289062 C212.773438,44.289062 183.925781,73.136719 183.925781,108.59375 C183.925781,144.050781 212.773438,172.894531 248.230469,172.894531 C283.6875,172.894531 312.53125,144.050781 312.53125,108.59375 Z M203.925781,108.59375 C203.925781,84.164062 223.800781,64.289062 248.230469,64.289062 C272.660156,64.289062 292.535156,84.164062 292.535156,108.59375 C292.535156,133.019531 272.660156,152.894531 248.230469,152.894531 C223.800781,152.894531 203.925781,133.019531 203.925781,108.59375 L203.925781,108.59375 Z" id="Shape"></path>
            <path d="M10,389.519531 C15.507812,389.519531 20,385.027344 20,379.519531 C20,374.011719 15.507812,369.519531 10,369.519531 C4.492188,369.519531 0,374.011719 0,379.519531 C0,385.027344 4.492188,389.519531 10,389.519531 Z" id="Path"></path>
            <path d="M474.136719,336.417969 C468.628906,336.417969 464.136719,340.910156 464.136719,346.417969 C464.136719,351.925781 468.628906,356.417969 474.136719,356.417969 C479.644531,356.417969 484.136719,351.925781 484.136719,346.417969 C484.136719,340.910156 479.644531,336.417969 474.136719,336.417969 Z" id="Path"></path>
        </g>
    </g>
</svg>