<svg width="142" height="32" xmlns="http://www.w3.org/2000/svg"><g fill-rule="nonzero" fill="none"><path d="M.227 16.108c0-2.1 1.8-3.9 3.9-3.9 2.2 0 3.9 1.7 3.9 3.9 0 2.1-1.8 3.9-3.9 3.9-2.1-.1-3.9-1.8-3.9-3.9zm27.6 3.8c-2.2 0-3.9-1.7-3.9-3.9 0-2.1 1.8-3.9 3.9-3.9 2.2 0 3.9 1.7 3.9 3.9s-1.7 3.9-3.9 3.9zm0-19.3c-8.7 0-15.7 6.9-15.7 15.5s7 15.5 15.7 15.5 15.7-6.9 15.7-15.5-7-15.5-15.7-15.5z" fill="#DA3743"/><path d="M139.227 13.108h.4l.3.7.2.5.2-.5.3-.7h.4v1.8h-.3v-1.4l-.4 1.1h-.3l-.4-1.1v1.4h-.4v-1.8zm-1.3.3h-.6v-.3h1.6v.3h-.6v1.5h-.4v-1.5zm-10.8 8.7c.2 0 .4-.2.4-.4v-1.6c0-.2-.2-.4-.4-.4h-.1c-.2 0-.4-.2-.4-.4v-9.2c0-.2-.2-.4-.4-.4h-1.6c-.2 0-.4.2-.4.4v10.5c0 .8.8 1.5 1.5 1.5h1.4zm-69.3-10c2.1 0 3.9 1.8 3.9 3.9 0 2.1-1.8 3.9-3.9 3.9-2.2 0-3.9-1.7-3.9-3.9 0-2.1 1.8-3.9 3.9-3.9zm0-2.4c-3.5 0-6.4 2.9-6.4 6.4 0 3.6 2.8 6.3 6.4 6.3 3.6 0 6.4-2.8 6.4-6.3.1-3.6-2.8-6.4-6.4-6.4zm51.3 9.9c-.1.3-.8.9-1.6.9s-1.3-.5-1.3-1.2c0-.8.6-1.3 1.6-1.3.7 0 1.3.3 1.3.3v1.3zm-1-6.5c-1.5 0-2.9.4-3.1.4-.2.1-.4.2-.3.5l.2 1c0 .3.2.5.5.4.5-.2 1.7-.3 2.5-.3 1 0 1.3.5 1.2 1.7 0 0-.8-.2-1.7-.2-2.3 0-3.6 1.2-3.6 2.8 0 1.9 1.2 3 3 3 1.4 0 2.3-.6 2.8-1.1v.5c0 .2.2.4.4.4h1c.2 0 .4-.2.4-.4v-4.8c0-2.5-.5-3.9-3.3-3.9zm-16.3 0c-1.7 0-2.6.9-2.9 1.3v-.7c0-.2-.2-.4-.4-.4h-1c-.2 0-.4.2-.4.4v8c0 .2.2.4.4.4h1.4c.4 0 .6-.1.6-.4v-5.1c.2-.6.8-1.4 1.9-1.4 1.1 0 1.6.7 1.6 1.9v4.6c0 .2.2.4.4.4h1.6c.2 0 .4-.2.4-.4v-4.6c-.1-2.1-.8-4-3.6-4zm-21.4 7.1c-1.1 0-1.9-.5-1.9-.5v-3.2c.2-.5.8-1.2 2-1.2 1.4 0 2.1 1.2 2.1 2.5s-.8 2.4-2.2 2.4zm.4-7.1c-1.8 0-2.9 1.2-2.9 1.3v-.7c0-.2-.2-.4-.4-.4h-1c-.2 0-.4.2-.4.4v11.6c0 .2.2.4.4.4h1.6c.2 0 .4-.2.4-.4v-3.3c.4.2 1.3.4 2.2.4 2.7 0 4.5-2 4.5-4.6-.1-2.8-2-4.7-4.4-4.7zm64.1 3.5c0-.9-.7-1.5-1.7-1.5-1.1 0-1.8.7-1.9 1.5h3.6zm-1.7-3.5c2.3 0 4.1 1.7 4.1 4.1v.6c0 .2-.2.4-.4.4h-5.8c0 1.1.9 2 2.2 2 .9 0 1.5-.3 1.9-.7.2-.2.4-.2.6 0l.8 1c.2.2.2.4 0 .6-.8.7-1.9 1.2-3.3 1.2-2.7 0-4.5-2.1-4.5-4.6-.1-2.5 1.8-4.6 4.4-4.6zm-15.2 7.1c-1.2 0-1.8-.7-2-1.2v-3.2s.7-.5 1.9-.5c1.5 0 2.2 1.2 2.2 2.4s-.7 2.5-2.1 2.5zm.2-7.1c-.9 0-1.8.2-2.2.4v-3.4c0-.2-.2-.4-.4-.4h-1.6c-.2 0-.4.2-.4.4v11.6c0 .2.2.4.4.4h.9c.2 0 .4-.2.4-.4v-.7s1 1.3 3 1.3c2.4 0 4.2-2.1 4.2-4.6.1-2.6-1.6-4.6-4.3-4.6zm-13.7-3.4h-9.1c-.2 0-.4.2-.4.4v1.6c0 .2.2.4.4.4h3.3v9.8c0 .2.2.4.4.4h1.8c.2 0 .4-.2.4-.4v-9.9h3.3c.2 0 .4-.2.4-.4v-1.6c-.2-.2-.3-.3-.5-.3zm-21.8 6.9c0-.9-.7-1.5-1.7-1.5-1.1 0-1.8.7-1.9 1.5h3.6zm-1.7-3.5c2.3 0 4.1 1.7 4.1 4.1v.6c0 .2-.2.4-.4.4h-5.8c0 1.1.9 2 2.2 2 .9 0 1.5-.3 1.9-.7.2-.2.4-.2.6 0l.8 1c.2.2.2.4 0 .6-.8.7-1.9 1.2-3.3 1.2-2.7 0-4.5-2.1-4.5-4.6-.1-2.5 1.8-4.6 4.4-4.6z" fill="#000"/></g></svg>
