<?xml version="1.0" encoding="UTF-8"?>
<svg width="500px" height="500px" viewBox="0 0 500 500" version="1.1" xmlns="http://www.w3.org/2000/svg" xmlns:xlink="http://www.w3.org/1999/xlink">
    <!-- Generator: Sketch 64 (93537) - https://sketch.com -->
    <title>Artboard</title>
    <desc>Created with Sketch.</desc>
    <g id="Artboard" stroke="none" stroke-width="1" fill="none" fill-rule="evenodd">
        <path d="M316.29635,175.235728 C316.55535,177.405728 317.12735,179.505728 318.02635,181.455728 C320.34035,186.485728 324.66235,190.273728 330.19535,192.121728 C331.24335,192.473728 332.36835,192.392728 333.35435,191.902728 C334.34335,191.412728 335.08135,190.567728 335.43235,189.525728 C336.15735,187.372728 334.98935,185.033728 332.82535,184.309728 C329.92635,183.341728 327.63535,181.586728 326.18835,179.225728 C325.67135,177.289728 325.50035,175.477728 325.63535,173.374728 C325.70135,172.358728 325.79035,171.518728 326.01735,170.723728 C327.47935,165.591728 332.81635,161.796728 338.42435,161.947728 C346.77135,162.135728 350.06135,169.713728 351.27835,174.214728 C353.18735,181.271728 352.95535,189.454728 350.62435,197.266728 C346.31435,205.885728 339.09835,214.391728 328.56535,223.264728 C327.13635,224.468728 325.59435,225.722728 323.85235,227.098728 C322.63635,228.056728 321.36635,228.981728 320.06435,229.926728 C315.47235,233.266728 310.35035,236.996728 307.09735,242.696728 C313.55335,224.037728 315.69635,196.544728 316.29635,175.235728 Z M184.26035,229.874728 C182.99835,228.955728 181.74535,228.043728 180.54735,227.098728 C178.81735,225.735728 177.27535,224.481728 175.83135,223.264728 C165.29935,214.391728 158.08235,205.885728 153.77335,197.266728 C151.44235,189.456728 151.21035,181.272728 153.12035,174.214728 C154.33735,169.713728 157.62535,162.135728 165.97235,161.947728 C171.58435,161.766728 176.91735,165.591728 178.37935,170.722728 C178.60635,171.515728 178.69635,172.357728 178.76235,173.374728 C178.89735,175.479728 178.72635,177.291728 178.20935,179.225728 C176.76235,181.586728 174.47135,183.341728 171.57235,184.309728 C169.41035,185.033728 168.24135,187.372728 168.96535,189.524728 C169.31735,190.567728 170.05335,191.412728 171.04235,191.902728 C172.03035,192.395728 173.15335,192.474728 174.20435,192.121728 C179.73535,190.273728 184.05735,186.485728 186.37335,181.455728 C187.44635,179.121728 188.05935,176.574728 188.21935,173.947728 C188.32235,177.984728 188.47935,182.260728 188.71135,186.668728 C190.01035,211.371728 193.02435,230.383728 197.68335,243.407728 C194.45835,237.301728 189.10435,233.395728 184.26035,229.874728 Z M350.89335,149.837728 C337.20035,144.536728 323.37035,150.177728 318.00435,163.252728 C317.25635,165.076728 316.73735,166.947728 316.43835,168.822728 C316.53435,162.710728 316.51435,157.325728 316.45535,153.125728 L316.45535,144.403728 C316.45535,143.860728 316.05835,143.399728 315.51935,143.312728 C273.62435,136.706728 231.13835,136.706728 189.24335,143.312728 C188.72035,143.396728 188.33035,143.833728 188.30735,144.358728 C188.30135,144.501728 187.86535,155.260728 188.13535,170.135728 C187.89535,167.825728 187.31635,165.502728 186.39335,163.252728 C181.02935,150.179728 167.19635,144.540728 153.50435,149.837728 C136.54235,156.398728 140.08335,180.170728 141.57335,187.299728 C144.67235,202.114728 153.86035,215.541728 170.48835,229.551728 C172.04335,230.863728 173.65535,232.173728 175.41135,233.556728 C176.69635,234.568728 178.00035,235.523728 179.45235,236.577728 C184.28435,240.092728 188.84835,243.412728 190.99435,248.563728 C192.29235,251.682728 192.04235,255.425728 190.32535,258.577728 C188.29335,262.304728 184.31235,264.008728 180.64035,262.721728 C178.37735,261.925728 173.78435,259.059728 174.87135,255.733728 C175.21335,254.687728 175.12535,253.571728 174.62535,252.591728 C174.12335,251.608728 173.26835,250.881728 172.22335,250.543728 C171.17735,250.199728 170.05935,250.283728 169.07335,250.780728 C168.08235,251.279728 167.34835,252.132728 167.00435,253.182728 C164.43635,261.032728 170.69235,267.957728 177.88135,270.486728 C179.61335,271.096728 181.40335,271.405728 183.20235,271.405728 L183.20635,271.405728 C189.18235,271.405728 194.56135,268.078728 197.59835,262.504728 C200.06535,257.975728 200.70535,252.664728 199.45235,247.855728 C200.05735,249.240728 200.67835,250.566728 201.33135,251.777728 C211.21535,270.123728 227.49835,283.690728 239.93035,292.085728 C239.26735,292.781728 238.87535,293.714728 238.87535,294.728728 L238.87535,298.661728 C238.87535,300.791728 240.61635,302.524728 242.75435,302.524728 L244.09335,302.524728 L244.09335,338.085728 L237.70035,349.038728 L230.61235,349.038728 C230.31435,349.038728 230.03035,349.157728 229.82135,349.367728 L215.73735,363.618728 C215.53335,363.825728 215.41835,364.103728 215.41835,364.393728 L215.41835,386.499728 L209.57635,386.499728 C208.96335,386.499728 208.46735,386.994728 208.46735,387.604728 L208.46735,393.114728 C208.46735,393.724728 208.96335,394.218728 209.57635,394.218728 L294.97135,394.218728 C295.58335,394.218728 296.08135,393.724728 296.08135,393.114728 L296.08135,387.604728 C296.08135,386.994728 295.58335,386.499728 294.97135,386.499728 L289.12835,386.499728 L289.12835,364.163728 C289.12835,363.862728 289.00635,363.576728 288.79035,363.368728 L274.17935,349.347728 C273.97335,349.149728 273.69735,349.038728 273.40935,349.038728 L266.85135,349.038728 L260.45635,337.990728 L260.45635,302.524728 L260.76435,302.524728 C262.90435,302.524728 264.64335,300.791728 264.64335,298.661728 L264.64335,294.728728 C264.64335,293.926728 264.39835,293.167728 263.95435,292.534728 C274.57735,285.429728 292.70735,271.280728 303.21535,251.777728 C303.75435,250.777728 304.26435,249.710728 304.76035,248.612728 C303.76035,253.216728 304.46135,258.212728 306.79935,262.504728 C309.83635,268.078728 315.21635,271.405728 321.19235,271.405728 L321.19635,271.405728 C322.99535,271.405728 324.78635,271.096728 326.51635,270.486728 C333.70635,267.957728 339.96135,261.032728 337.39335,253.182728 C337.04935,252.132728 336.31435,251.279728 335.32335,250.780728 C334.33535,250.283728 333.21935,250.198728 332.17935,250.542728 C331.12835,250.881728 330.27435,251.608728 329.77235,252.591728 C329.27135,253.571728 329.18435,254.687728 329.52635,255.733728 C330.61435,259.057728 326.02035,261.925728 323.75835,262.721728 C320.08835,264.007728 316.10235,262.307728 314.07335,258.577728 C312.35535,255.425728 312.10635,251.682728 313.40535,248.563728 C315.54935,243.411728 320.11435,240.092728 324.94635,236.576728 C326.40135,235.521728 327.70935,234.563728 328.98735,233.556728 C330.74335,232.173728 332.35335,230.863728 333.90935,229.551728 C350.53835,215.541728 359.72635,202.114728 362.82535,187.297728 C364.31535,180.170728 367.85835,156.398728 350.89335,149.837728 L350.89335,149.837728 Z" id="Fill-4" fill="#1A2F33"></path>
        <path d="M392.66935,43.8927276 C403.77735,54.0237276 405.77435,69.9197276 405.77435,69.9197276 C405.77435,69.9197276 389.76135,69.3907276 378.65335,59.2597276 C367.54535,49.1277276 365.54935,33.2317276 365.54935,33.2317276 C365.54935,33.2317276 381.56235,33.7607276 392.66935,43.8927276" id="Fill-5" fill="#1A2F33"></path>
        <path d="M314.55935,417.203728 C304.99635,429.471728 304.41935,443.959728 304.54935,444.005728 C304.51235,444.189728 324.61435,438.568728 333.63535,425.036728 C342.65935,411.677728 338.26435,397.829728 338.39535,397.869641 C338.34435,398.001728 324.10935,405.048728 314.55935,417.203728" id="Fill-6" fill="#1A2F33"></path>
        <path d="M328.63935,459.687728 C310.99535,456.692728 304.41535,443.350728 304.417349,443.469728 C304.62435,443.534728 323.53235,438.078728 339.82335,439.994728 C356.27635,441.996728 365.94235,452.214728 365.94335,452.323728 C366.17535,452.376728 346.47635,462.755728 328.63935,459.687728" id="Fill-7" fill="#1A2F33"></path>
        <path d="M349.44035,401.878728 C342.86835,415.331728 345.22735,429.398728 345.34935,429.423728 C345.33235,429.609728 363.00235,420.838728 368.95335,406.233728 C374.92135,391.796728 368.13035,379.136728 368.25335,379.155706 C368.22435,379.293728 356.01435,388.538728 349.44035,401.878728" id="Fill-8" fill="#1A2F33"></path>
        <path d="M370.98735,440.54292 C353.83435,440.597728 345.10635,428.811728 345.120333,428.928728 C345.31335,428.959728 361.88635,420.542728 377.70035,419.644728 C393.66835,418.804728 404.85735,427.044728 404.87135,427.150728 C405.09035,427.166728 388.32235,440.529728 370.98735,440.54292" id="Fill-9" fill="#1A2F33"></path>
        <path d="M379.55335,381.151728 C375.82335,395.294728 380.79035,408.489728 380.90335,408.493728 C380.91035,408.678728 396.04135,397.203728 399.06935,382.027728 C402.13035,367.013728 393.28935,355.897728 393.40435,355.896728 C393.39435,356.036728 383.30035,367.118728 379.55335,381.151728" id="Fill-10" fill="#1A2F33"></path>
        <path d="M407.45035,414.898728 C391.07935,417.864728 380.56535,407.941728 380.590305,408.053728 C380.76835,408.053728 394.91535,397.105728 409.96635,393.520728 C425.16435,389.968728 437.49835,396.025728 437.52235,396.128728 C437.72635,396.109728 423.99735,411.944728 407.45035,414.898728" id="Fill-11" fill="#1A2F33"></path>
        <path d="M404.68835,355.875728 C403.64435,370.250728 410.87935,382.178728 410.98435,382.165728 C411.01235,382.346728 423.50635,368.614728 423.76335,353.334728 C424.07235,338.207728 413.53435,328.928728 413.64135,328.909728 C413.65335,329.049728 405.76335,341.607728 404.68835,355.875728" id="Fill-12" fill="#1A2F33"></path>
        <path d="M437.78835,383.799728 C422.49235,389.503728 410.56435,381.686728 410.602259,381.792728 C410.76435,381.764728 422.39735,368.712728 436.39035,362.605728 C450.52035,356.507728 463.61035,360.238728 463.64835,360.335728 C463.83635,360.285728 453.24835,378.079728 437.78835,383.799728" id="Fill-13" fill="#1A2F33"></path>
        <path d="M424.63335,326.907728 C426.11535,341.091728 435.27135,351.419728 435.36735,351.390728 C435.41735,351.564728 445.16835,336.025728 442.81535,321.071728 C440.52935,306.260728 428.66235,299.052728 428.76035,299.017728 C428.79435,299.152728 423.20135,312.824728 424.63335,326.907728" id="Fill-14" fill="#1A2F33"></path>
        <path d="M461.75735,348.291728 C447.83935,356.523728 434.87835,350.996728 434.9292,351.095728 C435.07535,351.041728 444.10235,336.313728 456.73835,327.886728 C469.50135,319.446728 482.94935,320.767728 482.99935,320.857728 C483.17235,320.779728 475.83135,340.018728 461.75735,348.291728" id="Fill-15" fill="#1A2F33"></path>
        <path d="M439.17935,295.107728 C443.01935,308.714728 453.73635,317.169728 453.82335,317.126728 C453.89735,317.289728 460.80135,300.393728 456.00235,286.159728 C451.28935,272.056728 438.46735,267.093728 438.55735,267.044728 C438.61435,267.172728 435.40635,281.592728 439.17935,295.107728" id="Fill-16" fill="#1A2F33"></path>
        <path d="M479.11635,309.424728 C466.88435,319.936728 453.28235,316.825728 453.345132,316.914728 C453.47435,316.839728 459.80535,300.862728 470.77735,290.353728 C481.86735,279.811728 495.26435,278.698728 495.32735,278.779728 C495.48435,278.676728 491.49535,298.848728 479.11635,309.424728" id="Fill-17" fill="#1A2F33"></path>
        <path d="M448.11435,261.338728 C454.14135,274.018728 466.04635,280.385728 466.12535,280.329728 C466.22235,280.479728 470.17435,262.678728 463.10435,249.522728 C456.13635,236.482728 442.74535,233.880728 442.82635,233.818728 C442.90535,233.936728 442.17035,248.740728 448.11435,261.338728" id="Fill-18" fill="#1A2F33"></path>
        <path d="M489.61935,268.252728 C479.38635,280.760728 465.54335,280.129728 465.623005,280.207728 C465.73435,280.113728 469.27835,263.315728 478.27435,250.999728 C487.37835,238.633728 500.30535,235.122728 500.38135,235.192728 C500.52235,235.067728 499.98935,255.660728 489.61935,268.252728" id="Fill-19" fill="#1A2F33"></path>
        <path d="M451.22535,226.466728 C459.25735,237.905728 471.97735,242.030728 472.04535,241.964728 C472.16735,242.097728 473.06235,223.842728 463.89735,212.087728 C454.85235,200.431728 441.28835,200.243728 441.359072,200.170728 C441.46235,200.276728 443.29335,215.097728 451.22535,226.466728" id="Fill-20" fill="#1A2F33"></path>
        <path d="M493.02335,225.833728 C485.10935,240.014728 471.44135,241.868728 471.53335,241.934728 C471.62535,241.825728 472.29235,224.631728 478.99635,210.820728 C485.79435,196.944728 497.82335,191.131728 497.91435,191.189728 C498.03635,191.046728 501.06335,211.548728 493.02335,225.833728" id="Fill-21" fill="#1A2F33"></path>
        <path d="M448.29835,191.361728 C458.15035,201.280728 471.29635,203.071728 471.35535,202.995728 C471.50035,203.109728 469.23435,184.854728 458.15935,174.785728 C447.22135,164.797728 433.88935,167.019728 433.951135,166.936728 C434.07735,167.026728 438.56535,181.496728 448.29835,191.361728" id="Fill-22" fill="#1A2F33"></path>
        <path d="M489.08335,183.225728 C483.81635,198.722728 470.74335,203.006728 470.84735,203.057728 C470.92235,202.936728 468.62335,185.774728 472.70635,170.817728 C476.87535,155.782728 487.56635,147.823728 487.67035,147.867728 C487.77535,147.708728 494.46835,167.607728 489.08335,183.225728" id="Fill-23" fill="#1A2F33"></path>
        <path d="M439.12335,156.896728 C450.60435,165.053728 463.77435,164.474728 463.82435,164.391728 C463.99535,164.483728 458.46135,146.683728 445.66535,138.550728 C433.02535,130.476728 420.34135,135.043728 420.393191,134.953728 C420.54435,135.025728 427.77735,148.774728 439.12335,156.896728" id="Fill-24" fill="#1A2F33"></path>
        <path d="M477.55535,141.492728 C475.26435,157.910728 463.21935,164.508728 463.33835,164.544728 C463.39435,164.413728 458.03735,147.710728 459.17135,131.993728 C460.38035,116.186728 469.28535,106.296728 469.40235,106.326728 C469.48935,106.154728 479.95235,124.939728 477.55535,141.492728" id="Fill-25" fill="#1A2F33"></path>
        <path d="M423.48335,123.946728 C436.39735,130.136728 449.18435,127.213728 449.22135,127.124728 C449.41835,127.191728 440.51435,110.302728 426.19335,104.319728 C412.04635,98.3717276 400.43735,105.159728 400.477247,105.063728 C400.65535,105.113728 410.72435,117.772728 423.48335,123.946728" id="Fill-26" fill="#1A2F33"></path>
        <path d="M458.19235,101.701728 C459.21935,118.608728 448.64235,127.345728 448.77535,127.364728 C448.81335,127.227728 440.30735,111.408728 438.15635,95.3547276 C436.06635,79.2007276 442.72435,67.6567276 442.85735,67.6687276 C442.92335,67.4877276 457.26035,84.6457276 458.19235,101.701728" id="Fill-27" fill="#1A2F33"></path>
        <path d="M401.16535,93.3907276 C415.30835,97.4457276 427.29035,92.2637276 427.31935,92.1707276 C427.54135,92.2087276 415.16035,76.6887276 399.51635,73.0327276 C384.06735,69.3867276 373.96735,78.2107276 373.997283,78.1107276 C374.19935,78.1357276 387.19635,89.3327276 401.16535,93.3907276" id="Fill-28" fill="#1A2F33"></path>
        <path d="M430.74835,64.9217276 C435.43635,81.8497276 426.78135,92.4897276 426.92835,92.4897276 C426.94635,92.3497276 415.20335,77.8417276 409.42135,61.9087276 C403.69135,45.8697276 407.63335,33.0077276 407.78135,33.0017276 C407.83035,32.8147276 426.14435,47.8357276 430.74835,64.9217276" id="Fill-29" fill="#1A2F33"></path>
        <path d="M247.99835,448.451728 L248.27835,445.348728 C273.98735,447.676728 299.61535,444.812728 324.45235,436.837728 C348.65135,429.066728 371.05635,416.797728 391.04435,400.373728 C432.52535,366.288728 459.27635,317.648728 466.36935,263.412728 C472.17735,219.001728 469.19735,179.425728 457.51235,145.783728 C444.96535,109.657728 422.62035,81.3897276 391.09635,61.7647276 L392.74435,59.1197276 C424.88735,79.1317276 447.66835,107.945728 460.45635,144.760728 C472.30135,178.865728 475.33035,218.920728 469.45835,263.817728 C462.26235,318.839728 435.11735,368.191728 393.02335,402.780728 C372.72935,419.456728 349.97935,431.912728 325.40435,439.803728 C300.16735,447.907728 274.12435,450.817728 247.99835,448.451728" id="Fill-30" fill="#1A2F33"></path>
        <path d="M111.72935,43.8927276 C100.62135,54.0237276 98.62435,69.9197276 98.62435,69.9197276 C98.62435,69.9197276 114.63735,69.3907276 125.74535,59.2597276 C136.85335,49.1277276 138.84935,33.2317276 138.84935,33.2317276 C138.84935,33.2317276 122.83635,33.7607276 111.72935,43.8927276" id="Fill-31" fill="#1A2F33"></path>
        <path d="M189.83935,417.203728 C199.40335,429.471728 199.97835,443.959728 199.84935,444.005728 C199.88635,444.189728 179.78535,438.568728 170.76335,425.036728 C161.73935,411.677728 166.13435,397.829728 166.00235,397.869641 C166.05435,398.001728 180.29035,405.048728 189.83935,417.203728" id="Fill-32" fill="#1A2F33"></path>
        <path d="M175.75935,459.687728 C193.40435,456.692728 199.98435,443.350728 199.981351,443.469728 C199.77435,443.534728 180.86635,438.078728 164.57635,439.994728 C148.12235,441.996728 138.45635,452.214728 138.45635,452.323728 C138.22335,452.376728 157.92235,462.755728 175.75935,459.687728" id="Fill-33" fill="#1A2F33"></path>
        <path d="M154.95835,401.878728 C161.53135,415.331728 159.17035,429.398728 159.04935,429.423728 C159.06635,429.609728 141.39635,420.838728 135.44535,406.233728 C129.47635,391.796728 136.26835,379.136728 136.14435,379.155706 C136.17335,379.293728 148.38435,388.538728 154.95835,401.878728" id="Fill-34" fill="#1A2F33"></path>
        <path d="M133.41235,440.54292 C150.56435,440.597728 159.29235,428.811728 159.278367,428.928728 C159.08435,428.959728 142.51235,420.542728 126.69835,419.644728 C110.72935,418.804728 99.54035,427.044728 99.52735,427.150728 C99.30735,427.166728 116.07735,440.529728 133.41235,440.54292" id="Fill-35" fill="#1A2F33"></path>
        <path d="M124.84535,381.151728 C128.57635,395.294728 123.60835,408.489728 123.49635,408.493728 C123.48935,408.678728 108.35635,397.203728 105.32935,382.027728 C102.26835,367.013728 111.10935,355.897728 110.99535,355.896728 C111.00435,356.036728 121.09835,367.118728 124.84535,381.151728" id="Fill-36" fill="#1A2F33"></path>
        <path d="M96.94835,414.898728 C113.32035,417.864728 123.83335,407.941728 123.808394,408.053728 C123.63035,408.053728 109.48335,397.105728 94.43135,393.520728 C79.23435,389.968728 66.90135,396.025728 66.87535,396.128728 C66.67135,396.109728 80.40135,411.944728 96.94835,414.898728" id="Fill-37" fill="#1A2F33"></path>
        <path d="M99.71035,355.875728 C100.75435,370.250728 93.51935,382.178728 93.41435,382.165728 C93.38635,382.346728 80.89135,368.614728 80.63435,353.334728 C80.32735,338.207728 90.86535,328.928728 90.75735,328.909728 C90.74535,329.049728 98.63435,341.607728 99.71035,355.875728" id="Fill-38" fill="#1A2F33"></path>
        <path d="M66.61135,383.799728 C81.90735,389.503728 93.83335,381.686728 93.7964358,381.792728 C93.63435,381.764728 82.00135,368.712728 68.00835,362.605728 C53.87835,356.507728 40.78935,360.238728 40.75035,360.335728 C40.56235,360.285728 51.14935,378.079728 66.61135,383.799728" id="Fill-39" fill="#1A2F33"></path>
        <path d="M79.76535,326.907728 C78.28335,341.091728 69.12735,351.419728 69.03235,351.390728 C68.98135,351.564728 59.23035,336.025728 61.58335,321.071728 C63.87035,306.260728 75.73735,299.052728 75.63835,299.017728 C75.60435,299.152728 81.19735,312.824728 79.76535,326.907728" id="Fill-40" fill="#1A2F33"></path>
        <path d="M42.64135,348.291728 C56.55935,356.523728 69.52035,350.996728 69.4685059,351.095728 C69.32435,351.041728 60.29635,336.313728 47.66135,327.886728 C34.89635,319.446728 21.45035,320.767728 21.39935,320.857728 C21.22635,320.779728 28.56735,340.018728 42.64135,348.291728" id="Fill-41" fill="#1A2F33"></path>
        <path d="M65.21935,295.107728 C61.37935,308.714728 50.66235,317.169728 50.57535,317.126728 C50.50135,317.289728 43.59735,300.393728 48.39635,286.159728 C53.10935,272.056728 65.93035,267.093728 65.84135,267.044728 C65.78535,267.172728 68.99335,281.592728 65.21935,295.107728" id="Fill-42" fill="#1A2F33"></path>
        <path d="M25.28335,309.424728 C37.51435,319.936728 51.11735,316.825728 51.0535749,316.914728 C50.92335,316.839728 44.59335,300.862728 33.62235,290.353728 C22.53235,279.811728 9.13434995,278.698728 9.07134995,278.779728 C8.91334995,278.676728 12.90435,298.848728 25.28335,309.424728" id="Fill-43" fill="#1A2F33"></path>
        <path d="M56.28535,261.338728 C50.25735,274.018728 38.35235,280.385728 38.27335,280.329728 C38.17635,280.479728 34.22335,262.678728 41.29435,249.522728 C48.26135,236.482728 61.65335,233.880728 61.57335,233.818728 C61.49435,233.936728 62.22835,248.740728 56.28535,261.338728" id="Fill-44" fill="#1A2F33"></path>
        <path d="M14.78035,268.252728 C25.01135,280.760728 38.85535,280.129728 38.7766865,280.207728 C38.66535,280.113728 35.12135,263.315728 26.12435,250.999728 C17.01935,238.633728 4.09334995,235.122728 4.01634995,235.192728 C3.87634995,235.067728 4.41034995,255.660728 14.78035,268.252728" id="Fill-45" fill="#1A2F33"></path>
        <path d="M53.17335,226.466728 C45.14135,237.905728 32.42135,242.030728 32.35235,241.964728 C32.23135,242.097728 31.33635,223.842728 40.50135,212.087728 C49.54635,200.431728 63.11135,200.243728 63.0406275,200.170728 C62.93635,200.276728 61.10535,215.097728 53.17335,226.466728" id="Fill-46" fill="#1A2F33"></path>
        <path d="M11.37535,225.833728 C19.28835,240.014728 32.95735,241.868728 32.86635,241.934728 C32.77235,241.825728 32.10535,224.631728 25.40335,210.820728 C18.60335,196.944728 6.57634995,191.131728 6.48534995,191.189728 C6.36334995,191.046728 3.33534995,211.548728 11.37535,225.833728" id="Fill-47" fill="#1A2F33"></path>
        <path d="M56.09935,191.361728 C46.24835,201.280728 33.10235,203.071728 33.04335,202.995728 C32.89735,203.109728 35.16535,184.854728 46.24035,174.785728 C57.17735,164.797728 70.50835,167.019728 70.4485518,166.936728 C70.32135,167.026728 65.83335,181.496728 56.09935,191.361728" id="Fill-48" fill="#1A2F33"></path>
        <path d="M15.31535,183.225728 C20.58135,198.722728 33.65635,203.006728 33.55135,203.057728 C33.47535,202.936728 35.77635,185.774728 31.69235,170.817728 C27.52235,155.782728 16.83135,147.823728 16.72835,147.867728 C16.62335,147.708728 9.93034995,167.607728 15.31535,183.225728" id="Fill-49" fill="#1A2F33"></path>
        <path d="M65.27535,156.896728 C53.79335,165.053728 40.62435,164.474728 40.57535,164.391728 C40.40435,164.483728 45.93735,146.683728 58.73335,138.550728 C71.37335,130.476728 84.05635,135.043728 84.0055032,134.953728 C83.85435,135.025728 76.62235,148.774728 65.27535,156.896728" id="Fill-50" fill="#1A2F33"></path>
        <path d="M26.84335,141.492728 C29.13335,157.910728 41.17935,164.508728 41.06035,164.544728 C41.00435,164.413728 46.36135,147.710728 45.22735,131.993728 C44.01835,116.186728 35.11435,106.296728 34.99635,106.326728 C34.90935,106.154728 24.44735,124.939728 26.84335,141.492728" id="Fill-51" fill="#1A2F33"></path>
        <path d="M80.91535,123.946728 C68.00135,130.136728 55.21435,127.213728 55.17635,127.124728 C54.97935,127.191728 63.88435,110.302728 78.20635,104.319728 C92.35135,98.3717276 103.96135,105.159728 103.920458,105.063728 C103.74435,105.113728 93.67435,117.772728 80.91535,123.946728" id="Fill-52" fill="#1A2F33"></path>
        <path d="M46.20635,101.701728 C45.17935,118.608728 55.75635,127.345728 55.62335,127.364728 C55.58535,127.227728 64.09135,111.408728 66.24335,95.3547276 C68.33135,79.2007276 61.67435,67.6567276 61.54135,67.6687276 C61.47435,67.4877276 47.13735,84.6457276 46.20635,101.701728" id="Fill-53" fill="#1A2F33"></path>
        <path d="M103.23235,93.3907276 C89.09035,97.4457276 77.10735,92.2637276 77.08035,92.1707276 C76.85735,92.2087276 89.23935,76.6887276 104.88235,73.0327276 C120.33135,69.3867276 130.43135,78.2107276 130.402412,78.1107276 C130.19935,78.1357276 117.20335,89.3327276 103.23235,93.3907276" id="Fill-54" fill="#1A2F33"></path>
        <path d="M73.65035,64.9217276 C68.96135,81.8497276 77.61835,92.4897276 77.47035,92.4897276 C77.45335,92.3497276 89.19635,77.8417276 94.97735,61.9087276 C100.70635,45.8697276 96.76435,33.0077276 96.61835,33.0017276 C96.56935,32.8147276 78.25435,47.8357276 73.65035,64.9217276" id="Fill-55" fill="#1A2F33"></path>
        <path d="M256.40135,448.451728 L256.12035,445.348728 C230.41235,447.676728 204.78335,444.812728 179.94735,436.837728 C155.74835,429.066728 133.34235,416.797728 113.35435,400.373728 C71.87335,366.288728 45.12335,317.648728 38.02935,263.412728 C32.22135,219.001728 35.20135,179.425728 46.88635,145.783728 C59.43335,109.657728 81.77935,81.3897276 113.30135,61.7647276 L111.65435,59.1197276 C79.51135,79.1317276 56.72935,107.945728 43.94235,144.760728 C32.09735,178.865728 29.06835,218.920728 34.94035,263.817728 C42.13635,318.839728 69.28235,368.191728 111.37535,402.780728 C131.66935,419.456728 154.41935,431.912728 178.99435,439.803728 C204.23035,447.907728 230.27435,450.817728 256.40135,448.451728" id="Fill-56" fill="#1A2F33"></path>
        <polyline id="Fill-57" fill="#1A2F33" points="251.27635 432.581728 227.73035 449.895728 251.27635 467.209728 274.82235 449.895728 251.27635 432.581728"></polyline>
    </g>
</svg>