<?xml version="1.0" encoding="UTF-8"?>
<svg width="500px" height="500px" viewBox="0 0 500 500" version="1.1" xmlns="http://www.w3.org/2000/svg" xmlns:xlink="http://www.w3.org/1999/xlink">
    <!-- Generator: Sketch 64 (93537) - https://sketch.com -->
    <title>Artboard</title>
    <desc>Created with Sketch.</desc>
    <g id="Artboard" stroke="none" stroke-width="1" fill="none" fill-rule="evenodd">
        <polyline id="Fill-101" fill="#1A2F33" points="291.169 200.577013 247.906 114.051013 206.208 197.449013 156.808 114.051013 171.534 267.847013 327.695 267.847013 342.421 114.051013 291.169 200.577013"></polyline>
        <path d="M327.695,268.897013 L171.534,268.897013 C170.993,268.897013 170.54,268.486013 170.489,267.947013 L155.763,114.151013 C155.716,113.661013 156.015,113.205013 156.483,113.053013 C156.948,112.898013 157.462,113.092013 157.713,113.516013 L206.13,195.256013 L246.966,113.581013 C247.144,113.226013 247.508,113 247.906,113 C248.304,113 248.668,113.226013 248.846,113.581013 L291.247,198.384013 L341.516,113.516013 C341.767,113.092013 342.28,112.898013 342.746,113.053013 C343.214,113.205013 343.513,113.661013 343.466,114.151013 L328.741,267.947013 C328.689,268.486013 328.237,268.897013 327.695,268.897013" id="Fill-102" fill="#1A2F33"></path>
        <path d="M342.431,317.953013 C355.301,305.563013 357.549,285.643013 356.403,284.572013 C356.403,284.572013 344.707,293.293013 325.174,301.023013 C308.642,307.573013 311.091,332.513013 311.091,332.513013 C311.091,332.513013 329.56,330.353013 342.431,317.953013" id="Fill-103" fill="#1A2F33"></path>
        <path d="M303.469,344.533013 C297.021,343.813013 290.846,344.543013 285.571,345.793013 C289.611,343.183013 293.732,339.813013 297.2,335.543013 C308.416,321.713013 308.143,301.673013 306.87,300.743013 C306.87,300.743013 296.357,310.793013 277.943,320.783013 C262.358,329.243013 267.924,353.703013 267.924,353.703013 C267.924,353.703013 268.833,353.493013 270.36,352.993013 C273.521,357.273013 285.873,372.313013 300.641,368.213013 C320.92,362.573013 335.661,362.423013 335.661,362.423013 C335.881,360.893013 321.466,346.563013 303.469,344.533013" id="Fill-104" fill="#1A2F33"></path>
        <path d="M346.15,327.013013 C328.154,324.983013 312.249,334.363013 312.249,334.363013 C312.249,334.363013 326.159,355.453013 343.321,350.683013 C363.599,345.053013 378.341,344.903013 378.341,344.903013 C378.561,343.373013 364.146,329.043013 346.15,327.013013" id="Fill-105" fill="#1A2F33"></path>
        <path d="M386.079,313.573013 C379.76,312.863013 373.749,313.903013 368.908,315.343013 C372.706,312.663013 376.918,308.853013 379.89,303.803013 C386.685,292.263013 383.874,277.152013 382.777,276.573013 C382.777,276.573013 376.03,285.193013 363.223,294.533013 C354.076,301.213013 357.948,315.033013 359.38,319.183013 C358.413,319.683013 357.876,320.013013 357.876,320.013013 C357.876,320.013013 369.361,338.133013 383.642,333.973013 C400.517,329.053013 412.769,328.863013 412.769,328.863013 C412.958,327.543013 401.029,315.263013 386.079,313.573013" id="Fill-106" fill="#1A2F33"></path>
        <path d="M419.618,296.203013 C413.48,295.503013 407.65,296.583013 403.043,298.013013 C406.061,294.153013 409.254,288.863013 410.605,282.617013 C413.497,269.253013 405.841,255.348013 404.581,255.118013 C404.581,255.118013 400.786,265.608013 391.304,278.671013 C385.539,286.613013 390.681,296.723013 394.032,301.793013 C393.551,302.053013 393.287,302.213013 393.287,302.213013 C393.287,302.213013 404.009,319.133013 417.342,315.243013 C433.096,310.653013 444.536,310.483013 444.536,310.483013 C444.712,309.243013 433.575,297.773013 419.618,296.203013" id="Fill-107" fill="#1A2F33"></path>
        <path d="M440.128,279.837013 C433.814,279.783013 428.134,281.859013 424.174,283.822013 C426.568,280.102013 429.466,274.315013 429.829,267.657013 C430.457,256.101013 422.18,245.429013 421.094,245.396013 C421.094,245.396013 419.325,254.661013 413.14,266.800013 C409.079,274.771013 416.001,283.241013 419.309,286.643013 C418.797,286.993013 418.501,287.213013 418.501,287.213013 C418.501,287.213013 429.105,300.523013 439.978,296.083013 C452.825,290.833013 462.448078,289.683013 462.448078,289.683013 C462.481,288.633013 452.033,279.941013 440.128,279.837013" id="Fill-108" fill="#1A2F33"></path>
        <path d="M454.749,261.063013 C450.33,261.776013 446.501,263.674013 443.602,265.565013 C445.053,262.393013 446.381,258.230013 446.281,253.685013 C446.067,243.878013 438.382,235.361013 437.462,235.399879 C437.462,235.399879 436.564,243.339013 432.118,253.978013 C429.343,260.618013 434.985,267.033013 438.14,269.945013 C437.92,270.167013 437.8,270.296013 437.8,270.296013 C437.8,270.296013 448.658,279.903013 457.068,274.646013 C467.005,268.435013 474.867,266.111013 474.867,266.111013 C474.736,265.225013 464.705,259.457013 454.749,261.063013" id="Fill-109" fill="#1A2F33"></path>
        <path d="M452.961,250.356013 C452.859,250.463013 452.791,250.538013 452.791,250.538013 C452.791,250.538013 461.943,259.347013 469.098,254.811013 C477.553,249.451013 484.229,247.527013 484.229,247.527013 C484.123,246.732013 475.651,241.373013 467.204,242.613013 C462.56,243.295013 458.675,245.619013 456.11,247.576013 C457.316,244.764013 458.56,240.594013 457.978,236.172013 C456.94,228.285013 449.642,222.104013 448.861,222.217013 C448.861,222.217013 448.787,228.697013 445.923,237.671013 C444.026,243.611013 450.186,248.505013 452.961,250.356013" id="Fill-110" fill="#1A2F33"></path>
        <path d="M465.246,230.780013 C462.496,236.019013 459.473,241.110013 456.193,246.033013 C452.946,250.977013 449.351,255.694013 445.564,260.240013 C438.108,269.359013 429.381,277.606013 419.948,284.783013 C415.228,288.373013 410.319,291.713013 405.228,294.763013 C390.08,303.843013 372.976,310.543013 356.059,316.203013 C344.651,320.003013 333.043,323.343013 321.451,326.953013 C320.004,327.403013 318.558,327.873013 317.113,328.343013 C306.96,331.633013 296.874,335.323013 287.238,339.873013 C281.71,342.483013 276.212,345.253013 270.963,348.363013 C265.66,351.423013 260.582,354.873013 255.72,358.563013 L252.124,361.393013 C243.999,367.793013 236.488,376.193013 230.883,384.923013 C231.171,385.323013 232.942,386.083013 233.283,385.713013 C240.155,378.333013 246.773,370.893013 255.018,365.023013 L258.727,362.603013 C263.707,359.443013 268.794,356.463013 274.079,353.813013 C279.383,351.153013 284.751,348.533013 290.258,346.283013 C295.716,343.933013 301.28,341.783013 306.874,339.683013 L311.073,338.113013 L315.296,336.583013 C318.117,335.573013 320.942,334.553013 323.785,333.553013 C335.125,329.523013 346.596,325.643013 358.018,321.513013 C366.587,318.413013 375.137,315.053013 383.404,311.263013 L385.48,310.303013 C391.725,307.443013 397.757,304.173013 403.638,300.663013 L407.506,298.223013 C412.625,294.923013 417.544,291.343013 422.243,287.513013 C436.154,275.982013 448.249,262.164013 457.501,246.820013 C460.58,241.713013 463.383,236.459013 465.9,231.084013 L465.246,230.780013" id="Fill-111" fill="#1A2F33"></path>
        <path d="M231.538,384.823013 C231.938,385.063013 232.644,385.313013 232.967,385.333013 L234.796,383.363013 C240.889,376.793013 247.191,369.993013 254.72,364.633013 L258.447,362.193013 C264.012,358.663013 269.049,355.783013 273.848,353.373013 C279.799,350.393013 284.833,347.963013 290.064,345.833013 C295.777,343.373013 301.676,341.113013 306.693,339.233013 L315.786,335.883013 C318.388,334.953013 320.995,334.013013 323.615,333.103013 C328.44,331.383013 333.292,329.693013 338.154,328.003013 C344.611,325.753013 351.287,323.423013 357.844,321.053013 C367.512,317.563013 375.803,314.213013 383.189,310.823013 L385.262,309.863013 C391.11,307.183013 397.033,304.033013 403.376,300.243013 L407.233,297.813013 C412.253,294.583013 417.196,290.993013 421.921,287.143013 C436.097,275.388013 447.924,261.738013 457.067,246.574013 C459.079,243.237013 460.986,239.811013 462.769,236.336013 C460.831,239.726013 458.772,243.059013 456.615,246.297013 C453.578,250.920013 450.091,255.582013 445.954,260.547013 C438.679,269.445013 430.032,277.730013 420.258,285.163013 C415.491,288.793013 410.522,292.163013 405.492,295.183013 C388.552,305.333013 369.26,312.303013 356.222,316.663013 C348.751,319.153013 341.057,321.483013 333.617,323.743013 C329.617,324.953013 325.609,326.173013 321.603,327.413013 C320.351,327.813013 319.101,328.213013 317.85,328.623013 L317.272,328.803013 C305.446,332.643013 295.971,336.293013 287.457,340.313013 C280.982,343.363013 275.824,346.063013 271.223,348.783013 C266.245,351.653013 261.134,355.073013 256.029,358.943013 L252.439,361.773013 C244.593,367.953013 237.183,376.123013 231.538,384.823013 Z M232.963,386.303013 L232.854,386.293013 C232.152,386.253013 230.82,385.693013 230.47,385.193013 L230.283,384.933013 L230.458,384.663013 C236.188,375.743013 243.771,367.343013 251.808,361.013013 L255.405,358.183013 C260.55,354.273013 265.696,350.833013 270.707,347.943013 C275.33,345.213013 280.514,342.503013 287.018,339.433013 C295.574,335.403013 305.087,331.723013 316.954,327.883013 L317.533,327.693013 C318.787,327.283013 320.041,326.883013 321.297,326.493013 C325.305,325.243013 329.315,324.023013 333.318,322.813013 C340.752,320.553013 348.438,318.223013 355.896,315.733013 C368.888,311.393013 388.111,304.443013 404.965,294.343013 C409.965,291.353013 414.9,288.003013 419.637,284.400013 C429.352,277.009013 437.942,268.778013 445.171,259.936013 C449.287,254.996013 452.753,250.364013 455.769,245.770013 C459.035,240.871013 462.071,235.754013 464.799,230.558013 L465.021,230.135013 L466.561,230.850013 L466.357,231.286013 C463.841,236.658013 461.008,241.967013 457.934,247.067013 C448.733,262.326013 436.835,276.059013 422.568,287.883013 C417.812,291.763013 412.84,295.373013 407.783,298.633013 L403.911,301.063013 C397.527,304.883013 391.572,308.053013 385.695,310.743013 L385.691,310.743013 C385.5,310.833013 385.005,311.063013 383.619,311.703013 C376.207,315.103013 367.889,318.463013 358.193,321.973013 C351.631,324.343013 344.952,326.663013 338.493,328.913013 C333.633,330.613013 328.783,332.303013 323.957,334.013013 C321.337,334.933013 318.733,335.863013 316.134,336.803013 L311.249,338.573013 L307.053,340.143013 C302.049,342.013013 296.164,344.273013 290.463,346.733013 C285.252,348.853013 280.238,351.273013 274.309,354.243013 C269.539,356.633013 264.532,359.503013 259.002,363.003013 L255.298,365.433013 C247.867,370.723013 241.881,377.173013 235.542,384.013013 L233.656,386.043013 C233.496,386.213013 233.263,386.303013 232.963,386.303013 L232.963,386.303013 Z" id="Fill-112" fill="#1A2F33"></path>
        <path d="M480.065,212.428013 C479.995,212.052013 479.884,211.839013 479.699,211.717013 L479.26,211.433013 L478.988,211.872013 C478.967,211.904013 476.85,215.221013 468.565,220.791013 C461.234,225.720013 460.657,238.818013 460.635,239.372013 L460.608,240.103013 L461.312,239.848013 C461.658,239.722013 469.824,236.696013 475.105,229.482013 C480.043,222.738013 480.402,214.233013 480.065,212.428013" id="Fill-113" fill="#1A2F33"></path>
        <path d="M156.798,316.083013 C143.927,303.683013 141.679,283.769013 142.826,282.693013 C142.826,282.693013 154.522,291.413013 174.054,299.143013 C190.587,305.693013 188.137,330.633013 188.137,330.633013 C188.137,330.633013 169.669,328.473013 156.798,316.083013" id="Fill-114" fill="#1A2F33"></path>
        <path d="M195.759,342.663013 C202.208,341.933013 208.383,342.673013 213.658,343.913013 C209.618,341.303013 205.497,337.933013 202.029,333.663013 C190.813,319.833013 191.086,299.793013 192.36,298.863013 C192.36,298.863013 202.872,308.913013 221.286,318.903013 C236.871,327.363013 231.304,351.833013 231.304,351.833013 C231.304,351.833013 230.396,351.613013 228.869,351.113013 C225.708,355.393013 213.356,370.433013 198.588,366.333013 C178.309,360.703013 163.568,360.543013 163.568,360.543013 C163.348,359.013013 177.763,344.693013 195.759,342.663013" id="Fill-115" fill="#1A2F33"></path>
        <path d="M153.079,325.133013 C171.075,323.103013 186.981,332.483013 186.981,332.483013 C186.981,332.483013 173.07,353.573013 155.908,348.813013 C135.63,343.173013 120.887,343.023013 120.887,343.023013 C120.668,341.493013 135.084,327.163013 153.079,325.133013" id="Fill-116" fill="#1A2F33"></path>
        <path d="M113.15,311.693013 C119.468,310.983013 125.48,312.023013 130.321,313.463013 C126.523,310.783013 122.311,306.973013 119.339,301.923013 C112.544,290.383013 115.355,275.274013 116.452,274.695013 C116.452,274.695013 123.199,283.310013 136.006,292.653013 C145.153,299.333013 141.281,313.153013 139.849,317.303013 C140.816,317.803013 141.353,318.133013 141.353,318.133013 C141.353,318.133013 129.868,336.253013 115.587,332.093013 C98.713,327.173013 86.46,326.993013 86.46,326.993013 C86.271,325.663013 98.2,313.383013 113.15,311.693013" id="Fill-117" fill="#1A2F33"></path>
        <path d="M79.611,294.323013 C85.749,293.633013 91.579,294.713013 96.186,296.133013 C93.168,292.273013 89.975,286.983013 88.625,280.739013 C85.732,267.374013 93.388,253.469013 94.648,253.239013 C94.648,253.239013 98.443,263.730013 107.924,276.793013 C113.69,284.733013 108.548,294.853013 105.197,299.913013 C105.677,300.173013 105.942,300.333013 105.942,300.333013 C105.942,300.333013 95.219,317.253013 81.886,313.363013 C66.133,308.773013 54.693,308.603013 54.693,308.603013 C54.517,307.363013 65.655,295.893013 79.611,294.323013" id="Fill-118" fill="#1A2F33"></path>
        <path d="M59.101,277.959013 C65.415,277.904013 71.095,279.980013 75.055,281.944013 C72.661,278.223013 69.762,272.437013 69.4,265.778013 C68.772,254.222013 77.049,243.551013 78.134,243.518013 C78.134,243.518013 79.904,252.782013 86.089,264.921013 C90.151,272.893013 83.228,281.363013 79.921,284.763013 C80.432,285.113013 80.728,285.333013 80.728,285.333013 C80.728,285.333013 70.124,298.643013 59.251,294.203013 C46.404,288.953013 36.7819172,287.803013 36.7819172,287.803013 C36.748,286.753013 47.196,278.062013 59.101,277.959013" id="Fill-119" fill="#1A2F33"></path>
        <path d="M44.481,259.184013 C48.899,259.897013 52.728,261.795013 55.627,263.687013 C54.175,260.514013 52.848,256.352013 52.948,251.807013 C53.162,241.999013 60.847,233.483013 61.767,233.520886 C61.767,233.520886 62.666,241.460013 67.111,252.100013 C69.885,258.739013 64.244,265.154013 61.089,268.067013 C61.309,268.289013 61.428,268.417013 61.428,268.417013 C61.428,268.417013 50.571,278.025013 42.161,272.768013 C32.224,266.557013 24.362,264.232013 24.362,264.232013 C24.493,263.346013 34.524,257.578013 44.481,259.184013" id="Fill-120" fill="#1A2F33"></path>
        <path d="M46.268,248.478013 C46.37,248.585013 46.438,248.659013 46.438,248.659013 C46.438,248.659013 37.286,257.469013 30.13,252.932013 C21.675,247.572013 15,245.648013 15,245.648013 C15.106,244.853013 23.578,239.494013 32.025,240.734013 C36.669,241.416013 40.553,243.741013 43.119,245.697013 C41.913,242.885013 40.669,238.715013 41.251,234.294013 C42.289,226.406013 49.587,220.225013 50.368,220.338013 C50.368,220.338013 50.442,226.819013 53.307,235.792013 C55.203,241.732013 49.043,246.627013 46.268,248.478013" id="Fill-121" fill="#1A2F33"></path>
        <path d="M33.983,228.902013 C36.733,234.140013 39.756,239.232013 43.036,244.154013 C46.283,249.098013 49.878,253.815013 53.666,258.362013 C61.121,267.481013 69.848,275.727013 79.281,282.905013 C84.001,286.493013 88.91,289.833013 94.001,292.883013 C109.149,301.963013 126.253,308.663013 143.17,314.323013 C154.578,318.123013 166.186,321.463013 177.778,325.073013 C179.225,325.523013 180.671,325.993013 182.116,326.463013 C192.269,329.753013 202.355,333.453013 211.991,337.993013 C217.519,340.603013 223.018,343.383013 228.266,346.483013 C233.569,349.543013 238.647,352.993013 243.509,356.683013 L247.105,359.513013 C255.23,365.913013 262.741,374.313013 268.346,383.043013 C268.058,383.443013 266.287,384.203013 265.946,383.843013 C259.074,376.463013 252.456,369.013013 244.212,363.143013 L240.502,360.723013 C235.522,357.563013 230.435,354.583013 225.15,351.933013 C219.846,349.273013 214.478,346.653013 208.97,344.413013 C203.513,342.053013 197.949,339.903013 192.355,337.803013 L188.156,336.233013 L183.933,334.703013 C181.112,333.693013 178.287,332.673013 175.445,331.683013 C164.104,327.643013 152.633,323.763013 141.211,319.633013 C132.642,316.533013 124.091,313.173013 115.825,309.383013 L113.749,308.433013 C107.504,305.563013 101.472,302.293013 95.591,298.783013 L91.723,296.343013 C86.604,293.053013 81.685,289.463013 76.986,285.633013 C63.076,274.104013 50.98,260.285013 41.728,244.942013 C38.649,239.834013 35.845,234.581013 33.329,229.206013 L33.983,228.902013" id="Fill-122" fill="#1A2F33"></path>
        <path d="M246.79,359.893013 L243.2,357.063013 C238.094,353.193013 232.984,349.773013 228.006,346.903013 C223.405,344.183013 218.247,341.493013 211.772,338.433013 C203.258,334.413013 193.783,330.763013 181.957,326.933013 L181.379,326.743013 C180.128,326.333013 178.878,325.933013 177.626,325.543013 C173.62,324.293013 169.612,323.073013 165.612,321.863013 C158.172,319.603013 150.478,317.273013 143.007,314.783013 C129.969,310.423013 110.676,303.453013 93.737,293.303013 C88.707,290.283013 83.738,286.913013 78.971,283.289013 C69.197,275.851013 60.549,267.567013 53.275,258.668013 C49.138,253.704013 45.651,249.041013 42.614,244.419013 C40.457,241.181013 38.398,237.847013 36.46,234.458013 C38.243,237.933013 40.15,241.359013 42.162,244.695013 C51.304,259.859013 63.132,273.509013 77.308,285.263013 C82.033,289.113013 86.976,292.703013 91.996,295.933013 L95.853,298.363013 C102.196,302.153013 108.119,305.303013 113.966,307.993013 L116.04,308.943013 C123.425,312.333013 131.716,315.683013 141.385,319.173013 C147.942,321.543013 154.618,323.873013 161.075,326.123013 C165.937,327.813013 170.789,329.503013 175.614,331.223013 C178.234,332.133013 180.841,333.073013 183.443,334.013013 L192.536,337.353013 C197.552,339.233013 203.452,341.493013 209.165,343.963013 C214.396,346.093013 219.43,348.513013 225.381,351.503013 C230.18,353.903013 235.216,356.793013 240.782,360.313013 L244.508,362.753013 C252.038,368.113013 258.34,374.913013 264.433,381.483013 L266.261,383.453013 C266.585,383.433013 267.291,383.183013 267.691,382.943013 C262.046,374.243013 254.635,366.073013 246.79,359.893013 Z M265.573,384.163013 L263.687,382.133013 C257.348,375.303013 251.362,368.843013 243.931,363.553013 L240.227,361.133013 C234.697,357.623013 229.69,354.763013 224.92,352.363013 C218.991,349.393013 213.977,346.973013 208.766,344.853013 C203.065,342.393013 197.18,340.143013 192.175,338.263013 L187.98,336.693013 L183.094,334.923013 C180.496,333.993013 177.892,333.053013 175.272,332.133013 C170.446,330.423013 165.596,328.733013 160.736,327.043013 C154.277,324.793013 147.598,322.463013 141.036,320.093013 C131.34,316.583013 123.022,313.223013 115.61,309.823013 C114.224,309.183013 113.729,308.963013 113.538,308.863013 L113.534,308.873013 C107.657,306.173013 101.702,303.003013 95.318,299.193013 L91.446,296.753013 C86.389,293.493013 81.417,289.883013 76.661,286.013013 C62.394,274.180013 50.496,260.447013 41.296,245.189013 C38.221,240.089013 35.387,234.780013 32.872,229.407013 L32.668,228.972013 L34.208,228.257013 L34.43,228.680013 C37.158,233.876013 40.194,238.992013 43.46,243.891013 C46.476,248.486013 49.942,253.118013 54.058,258.058013 C61.287,266.900013 69.877,275.130013 79.591,282.521013 C84.329,286.123013 89.264,289.473013 94.264,292.473013 C111.119,302.573013 130.341,309.513013 143.333,313.863013 C150.791,316.343013 158.477,318.673013 165.911,320.933013 C169.914,322.143013 173.924,323.363013 177.932,324.613013 C179.188,325.003013 180.442,325.413013 181.696,325.813013 L182.275,326.003013 C194.142,329.853013 203.655,333.523013 212.211,337.553013 C218.715,340.623013 223.899,343.333013 228.522,346.063013 C233.533,348.953013 238.678,352.393013 243.824,356.303013 L247.421,359.133013 C255.458,365.463013 263.041,373.863013 268.771,382.783013 L268.946,383.053013 L268.758,383.323013 C268.409,383.813013 267.077,384.373013 266.375,384.423013 L266.266,384.423013 C265.966,384.423013 265.733,384.333013 265.573,384.163013 L265.573,384.163013 Z" id="Fill-123" fill="#1A2F33"></path>
        <path d="M19.164,210.550013 C19.234,210.173013 19.344,209.961013 19.53,209.839013 L19.968,209.554013 L20.241,209.994013 C20.261,210.026013 22.379,213.342013 30.664,218.913013 C37.995,223.842013 38.572,236.939013 38.593,237.494013 L38.621,238.225013 L37.917,237.969013 C37.571,237.844013 29.405,234.818013 24.124,227.604013 C19.186,220.860013 18.827,212.355013 19.164,210.550013" id="Fill-124" fill="#1A2F33"></path>
    </g>
</svg>