<?xml version="1.0" encoding="UTF-8"?>
<svg width="500px" height="500px" viewBox="0 0 500 500" version="1.1" xmlns="http://www.w3.org/2000/svg" xmlns:xlink="http://www.w3.org/1999/xlink">
    <!-- Generator: Sketch 64 (93537) - https://sketch.com -->
    <title>Artboard</title>
    <desc>Created with Sketch.</desc>
    <g id="Artboard" stroke="none" stroke-width="1" fill="none" fill-rule="evenodd">
        <polyline id="Fill-81" fill="#1A2F33" points="246.23424 93.287 252.68624 106.315 267.11424 108.404 256.67424 118.545 259.13924 132.864 246.23424 126.104 233.32824 132.864 235.79324 118.545 225.35324 108.404 239.78124 106.315 246.23424 93.287"></polyline>
        <path d="M245.88024,338.235 L245.17024,142.507 C245.17024,142.507 282.41024,139.764 295.83924,73 C295.83924,73 298.79924,152.567 298.56924,158.97 C298.34124,165.372 245.88024,338.235 245.88024,338.235" id="Fill-82" fill="#1A2F33"></path>
        <path d="M241.11624,163.273 C241.11624,163.273 217.72824,158.258 201.56424,91.667 C201.56424,91.667 203.77824,173.651 203.91524,180.255 C204.05424,186.859 243.75024,339.365 243.75024,339.365 L241.11624,163.273" id="Fill-83" fill="#1A2F33"></path>
        <polyline id="Fill-84" fill="#1A2F33" points="280.52724 349.355 243.58624 357.975 209.04224 349.355 220.87724 330.765 268.21824 330.765 280.52724 349.355"></polyline>
        <path d="M192.06824,414.235 C196.61324,410.485 201.78324,407.705 207.07924,405.525 C209.04824,404.725 211.07124,403.985 213.13424,403.325 C207.72724,400.455 203.77224,396.155 199.71724,391.475 C198.20824,390.135 186.95224,376.495 187.08124,376.485 C194.08624,374.935 200.19424,373.675 207.38524,374.935 C211.88524,375.715 215.70724,377.505 219.58524,379.935 C222.77224,381.925 225.98924,384.335 229.64524,386.835 C232.15124,388.555 234.77324,390.255 237.63224,391.145 C240.48624,392.045 243.64324,392.075 246.19224,390.485 C246.50924,390.285 246.85624,390.055 247.22424,390.165 C247.53824,390.255 247.78624,390.575 247.97424,390.895 C251.52024,396.965 247.80424,408.965 244.37324,412.655 C235.19124,422.935 225.99424,427.585 212.74224,426.375 C201.12024,425.155 193.74024,424.755 182.88624,426.805 C181.86124,427.015 185.82224,420.665 186.12024,420.265 C187.96024,418.055 189.89024,416.035 192.06824,414.235" id="Fill-85" fill="#1A2F33"></path>
        <path d="M138.38924,392.155 C143.24924,390.205 148.42824,389.305 153.56124,388.965 C155.46824,388.835 157.40424,388.785 159.35624,388.815 C155.32324,384.705 152.87024,379.755 150.40024,374.425 C149.40724,372.805 142.62124,357.345 142.71924,357.364981 C149.28424,358.145 154.97824,358.915 160.99724,362.205 C164.76624,364.245 167.68324,366.975 170.48324,370.255 C172.78424,372.955 175.00324,376.015 177.56524,379.265 C179.32024,381.505 181.17324,383.745 183.41224,385.365 C185.64724,386.975 188.34024,387.905 190.89124,387.265 C191.20924,387.185 191.55824,387.085 191.84724,387.275 C192.09324,387.445 192.23024,387.795 192.31024,388.135 C193.88224,394.415 187.87024,403.785 184.06824,406.015 C173.78224,412.355 164.79624,413.815 153.58924,408.905 C143.78524,404.445 137.41824,401.915 127.41324,400.505 C126.46624,400.375 131.41324,395.965 131.77124,395.695 C133.89824,394.295 136.06024,393.095 138.38924,392.155" id="Fill-86" fill="#1A2F33"></path>
        <path d="M95.8802397,356.185 C100.63324,355.965 105.44524,356.775 110.09024,358.065 C111.81624,358.545 113.55124,359.105 115.27924,359.735 C112.61424,354.825 111.52924,349.645 110.50324,344.105 C109.98624,342.365 107.30224,326.355 107.37524,326.384958 C113.08024,329.185 118.02124,331.695 122.68224,336.535 C125.60424,339.555 127.60624,342.905 129.36424,346.695 C130.81324,349.805 132.09824,353.215 133.63424,356.895 C134.68624,359.415 135.81724,361.965 137.43024,364.085 C139.04024,366.185 141.20624,367.835 143.60624,368.035 C143.90524,368.065 144.23724,368.085 144.44524,368.345 C144.62524,368.565 144.66324,368.915 144.65624,369.245 C144.58524,375.255 137.12124,381.695 133.25724,382.525 C122.72724,385.015 114.46824,383.595 105.64124,375.805 C97.9502397,368.835 92.8512397,364.595 84.2842397,360.205 C83.4712397,359.795 88.8372397,357.405 89.2152397,357.275 C91.4142397,356.685 93.6022397,356.285 95.8802397,356.185" id="Fill-87" fill="#1A2F33"></path>
        <path d="M66.0352397,310.184 C70.2632397,311.532 74.3342397,313.831 78.1682397,316.506 C79.5922397,317.501 81.0092397,318.566 82.4052397,319.697 C81.0992397,314.4 81.2522397,309.349 81.5322397,303.971 C81.4482397,302.235 82.4992397,286.732 82.5582397,286.768934 C86.9842397,291.224 90.8312397,295.149 93.9482397,301.079 C95.9062397,304.779 96.9802397,308.463 97.7372397,312.465 C98.3632397,315.75 98.7782397,319.24 99.3562397,323.045 C99.7522397,325.655 100.20724,328.315 101.18924,330.725 C102.16724,333.135 103.74124,335.295 105.84124,336.245 C106.10324,336.365 106.39524,336.485 106.52424,336.785 C106.63424,337.045 106.59424,337.365 106.51624,337.655 C105.13024,343.015 97.0572397,346.425 93.4382397,345.945 C83.5192397,344.855 76.5032397,340.985 70.3912397,331.125 C65.1082397,322.365 61.5322397,316.856 54.9892397,310.074 C54.3672397,309.435 59.5872397,309 59.9482397,309.005 C62.0032397,309.189 64.0102397,309.54 66.0352397,310.184" id="Fill-88" fill="#1A2F33"></path>
        <path d="M50.3542397,258.004 C53.6372397,260.676 56.5942397,264.179 59.2932397,267.937 C60.2952397,269.335 61.2782397,270.795 62.2362397,272.305 C62.2792397,266.974 63.5412397,262.341 64.9882397,257.43 C65.2982397,255.804 69.7222397,241.655 69.7752397,241.690931 C72.4992397,247.379 74.9172397,252.357 76.3042397,258.925 C77.1832397,263.026 77.3152397,266.801 77.1092397,270.752 C76.9432397,273.995 76.5522397,277.351 76.2372397,281.041 C76.0232397,283.569 75.8482397,286.164 76.1912397,288.698 C76.5312397,291.228 77.4512397,293.723 79.0992397,295.278 C79.3042397,295.473 79.5352397,295.68 79.5852397,295.997 C79.6272397,296.268 79.5222397,296.55 79.3922397,296.787 C77.0202397,301.218 69.1742397,301.678 66.1082397,300.061 C57.6552397,295.807 52.3962397,289.971 49.3332397,278.851 C46.7532397,269.016 44.9542397,262.71 41.0222397,254.198 C40.6462397,253.393 45.1582397,254.738 45.4642397,254.864 C47.1602397,255.725 48.7802397,256.725 50.3542397,258.004" id="Fill-89" fill="#1A2F33"></path>
        <path d="M50.3312397,203.447 C52.2532397,207.118 53.7232397,211.47 54.9662397,215.966 C55.4262397,217.637 55.8622397,219.36 56.2702397,221.119 C57.6572397,216.069 59.8982397,212.073 62.3772397,207.856 C63.0372397,206.425 70.4772397,194.266 70.5322397,194.296941 C71.1382397,200.74 71.7872397,206.374 71.2582397,213.144 C70.9402397,217.374 70.1192397,221.019 68.9852397,224.703 C68.0572397,227.728 66.9242397,230.773 65.7832397,234.149 C65.0032397,236.461 64.2422397,238.846 63.9422397,241.342 C63.6392397,243.835 63.8402397,246.485 64.8842397,248.496 C65.0152397,248.747 65.1632397,249.02 65.1342397,249.333 C65.1082397,249.601 64.9532397,249.829 64.7882397,250.007 C61.7562397,253.343 54.9732397,251.128 52.7672397,248.585 C46.6302397,241.755 43.6412397,234.521 43.9622397,222.96 C44.3792397,212.769 44.6142397,206.139 43.8732397,196.649 C43.8002397,195.75 47.0442397,198.56 47.2582397,198.785 C48.3812397,200.183 49.4082397,201.69 50.3312397,203.447" id="Fill-90" fill="#1A2F33"></path>
        <path d="M67.4652397,150.284 C67.6092397,154.542 67.2222397,159.326 66.6882397,164.164 C66.4862397,165.962 66.2612397,167.801 66.0092397,169.664 C68.7352397,165.166 71.8262397,161.962 75.2022397,158.59 C76.1732397,157.415 86.2742397,147.677 86.3402397,147.697 C84.4082397,154.365 82.9542397,160.218 80.3192397,166.768 C78.6892397,170.862 76.9032397,174.189 74.8742397,177.432 C73.2132397,180.095 71.4022397,182.698 69.4992397,185.606 C68.1982397,187.599 66.9002397,189.663 65.9452397,191.982 C64.9912397,194.299 64.4102397,196.929 64.7022397,199.224 C64.7382397,199.511 64.7842397,199.824 64.6742397,200.116 C64.5792397,200.366 64.3932397,200.534 64.2112397,200.649 C60.8422397,202.833 55.9532397,198.404 54.9122397,195.209 C51.9402397,186.548 51.7332397,178.564 55.7742397,167.379 C59.4822397,157.551 62.0052397,151.09 65.0372397,141.46 C65.3222397,140.546 66.7412397,144.377 66.8242397,144.67 C67.1622397,146.418 67.3942397,148.244 67.4652397,150.284" id="Fill-91" fill="#1A2F33"></path>
        <path d="M103.25324,102.247 C101.20624,106.6 98.5912397,111.336 95.9592397,116.072 C94.9792397,117.832 93.9752397,119.623 92.9572397,121.431 C97.0152397,117.712 100.83124,115.383 104.96924,112.936 C106.21124,112.059 118.62024,104.958 118.70624,104.964 C113.82024,111.271 109.92624,116.871 105.00024,122.792 C101.93924,126.496 99.1722397,129.347 96.2862397,132.017 C93.9222397,134.211 91.4912397,136.282 88.8942397,138.617 C87.1152397,140.217 85.3212397,141.88 83.7082397,143.903 C82.0962397,145.923 80.6692397,148.366 80.0582397,150.753 C79.9822397,151.052 79.9032397,151.38 79.7122397,151.635 C79.5492397,151.853 79.3452397,151.96 79.1632397,152.016 C75.7802397,153.097 73.6152397,147.101 74.0442397,143.589 C75.0832397,134.002 78.1662397,125.997 86.2612397,116.003 C93.5552397,107.258 98.6222397,101.476 106.00924,92.631 C106.70824,91.788 105.74424,96.062 105.66124,96.384 C105.00024,98.248 104.23224,100.162 103.25324,102.247" id="Fill-92" fill="#1A2F33"></path>
        <path d="M308.07924,414.235 C303.53324,410.485 298.36324,407.705 293.06824,405.525 C291.09924,404.725 289.07624,403.985 287.01324,403.325 C292.42024,400.455 296.37524,396.155 300.43024,391.475 C301.93924,390.135 313.19424,376.495 313.06624,376.485 C306.06124,374.935 299.95224,373.675 292.76324,374.935 C288.26224,375.715 284.44124,377.505 280.56324,379.935 C277.37624,381.925 274.15824,384.335 270.50224,386.835 C267.99624,388.555 265.37424,390.255 262.51524,391.145 C259.66124,392.045 256.50424,392.075 253.95524,390.485 C253.63824,390.285 253.29124,390.055 252.92324,390.165 C252.60924,390.255 252.36124,390.575 252.17324,390.895 C248.62724,396.965 252.34324,408.965 255.77424,412.655 C264.95624,422.935 274.15324,427.585 287.40424,426.375 C299.02824,425.155 306.40624,424.755 317.26224,426.805 C318.28624,427.015 314.32424,420.665 314.02724,420.265 C312.18724,418.055 310.25724,416.035 308.07924,414.235" id="Fill-93" fill="#1A2F33"></path>
        <path d="M361.75524,392.155 C356.89524,390.205 351.72024,389.305 346.58624,388.965 C344.67924,388.835 342.74224,388.785 340.79224,388.815 C344.82324,384.705 347.27724,379.755 349.74724,374.425 C350.73924,372.805 357.52524,357.345 357.42524,357.364981 C350.86224,358.145 345.16924,358.915 339.15124,362.205 C335.38124,364.245 332.46424,366.975 329.66424,370.255 C327.36224,372.955 325.14424,376.015 322.58224,379.265 C320.82624,381.505 318.97424,383.745 316.73524,385.365 C314.50024,386.975 311.80724,387.905 309.25624,387.265 C308.93924,387.185 308.58924,387.085 308.30024,387.275 C308.05424,387.445 307.91724,387.795 307.83724,388.135 C306.26524,394.415 312.27724,403.785 316.07924,406.015 C326.36424,412.355 335.35124,413.815 346.55824,408.905 C356.36524,404.445 362.72524,401.915 372.73524,400.505 C373.68524,400.375 368.73524,395.965 368.37524,395.695 C366.24524,394.295 364.08524,393.095 361.75524,392.155" id="Fill-94" fill="#1A2F33"></path>
        <path d="M404.26524,356.185 C399.51524,355.965 394.70524,356.775 390.05524,358.065 C388.33524,358.545 386.59524,359.105 384.86524,359.735 C387.53524,354.825 388.61524,349.645 389.64524,344.105 C390.16524,342.365 392.84524,326.355 392.77524,326.384958 C387.06524,329.185 382.12524,331.695 377.46524,336.535 C374.54524,339.555 372.54524,342.905 370.78524,346.695 C369.33524,349.805 368.04524,353.215 366.51524,356.895 C365.46524,359.415 364.33524,361.965 362.71524,364.085 C361.10524,366.185 358.94524,367.835 356.54524,368.035 C356.24524,368.065 355.91024,368.085 355.70124,368.345 C355.52324,368.565 355.48424,368.915 355.489665,369.245 C355.56224,375.255 363.02524,381.695 366.89524,382.525 C377.42524,385.015 385.67524,383.595 394.50524,375.805 C402.19524,368.835 407.29524,364.595 415.86524,360.205 C416.67524,359.795 411.30524,357.405 410.93524,357.275 C408.73524,356.685 406.54524,356.285 404.26524,356.185" id="Fill-95" fill="#1A2F33"></path>
        <path d="M434.11524,310.184 C429.88524,311.532 425.81524,313.831 421.97524,316.506 C420.55524,317.501 419.13524,318.566 417.74524,319.697 C419.04524,314.4 418.89524,309.349 418.61524,303.971 C418.69524,302.235 417.64524,286.732 417.58524,286.768934 C413.16524,291.224 409.31524,295.149 406.19524,301.079 C404.24524,304.779 403.16524,308.463 402.40524,312.465 C401.78524,315.75 401.36524,319.24 400.79524,323.045 C400.39524,325.655 399.94524,328.315 398.95524,330.725 C397.97524,333.135 396.40524,335.295 394.30524,336.245 C394.04524,336.365 393.75524,336.485 393.62524,336.785 C393.51524,337.045 393.55524,337.365 393.63524,337.655 C395.01524,343.015 403.09524,346.425 406.71524,345.945 C416.62524,344.855 423.64524,340.985 429.75524,331.125 C435.03524,322.365 438.61524,316.856 445.15524,310.074 C445.77524,309.435 440.55524,309 440.19524,309.005 C438.14524,309.189 436.13524,309.54 434.11524,310.184" id="Fill-96" fill="#1A2F33"></path>
        <path d="M449.79524,258.004 C446.50524,260.676 443.55524,264.179 440.85524,267.937 C439.85524,269.335 438.86524,270.795 437.91524,272.305 C437.86524,266.974 436.60524,262.341 435.15524,257.43 C434.84524,255.804 430.42524,241.655 430.37524,241.690931 C427.64524,247.379 425.22524,252.357 423.84524,258.925 C422.96524,263.026 422.83524,266.801 423.03524,270.752 C423.20524,273.995 423.59524,277.351 423.90524,281.041 C424.12524,283.569 424.29524,286.164 423.95524,288.698 C423.61524,291.228 422.69524,293.723 421.04524,295.278 C420.84524,295.473 420.61524,295.68 420.56524,295.997 C420.51524,296.268 420.62524,296.55 420.75524,296.787 C423.12524,301.218 430.97524,301.678 434.03524,300.061 C442.49524,295.807 447.75524,289.971 450.81524,278.851 C453.39524,269.016 455.19524,262.71 459.12524,254.198 C459.50524,253.393 454.98524,254.738 454.68524,254.864 C452.98524,255.725 451.36524,256.725 449.79524,258.004" id="Fill-97" fill="#1A2F33"></path>
        <path d="M449.81524,203.447 C447.89524,207.118 446.42524,211.47 445.18524,215.966 C444.72524,217.637 444.28524,219.36 443.87524,221.119 C442.48524,216.069 440.24524,212.073 437.76524,207.856 C437.10524,206.425 429.67524,194.266 429.61524,194.296941 C429.00524,200.74 428.35524,206.374 428.88524,213.144 C429.20524,217.374 430.02524,221.019 431.16524,224.703 C432.09524,227.728 433.22524,230.773 434.36524,234.149 C435.14524,236.461 435.90524,238.846 436.20524,241.342 C436.50524,243.835 436.30524,246.485 435.26524,248.496 C435.13524,248.747 434.98524,249.02 435.01524,249.333 C435.03524,249.601 435.19524,249.829 435.35524,250.007 C438.39524,253.343 445.17524,251.128 447.38524,248.585 C453.51524,241.755 456.50524,234.521 456.18524,222.96 C455.76524,212.769 455.53524,206.139 456.27524,196.649 C456.34524,195.75 453.10524,198.56 452.88524,198.785 C451.76524,200.183 450.73524,201.69 449.81524,203.447" id="Fill-98" fill="#1A2F33"></path>
        <path d="M432.68524,150.284 C432.53524,154.542 432.92524,159.326 433.45524,164.164 C433.66524,165.962 433.88524,167.801 434.13524,169.664 C431.41524,165.166 428.32524,161.962 424.94524,158.59 C423.97524,157.415 413.87524,147.677 413.80524,147.697 C415.73524,154.365 417.19524,160.218 419.82524,166.768 C421.45524,170.862 423.24524,174.189 425.27524,177.432 C426.93524,180.095 428.74524,182.698 430.64524,185.606 C431.94524,187.599 433.24524,189.663 434.20524,191.982 C435.15524,194.299 435.73524,196.929 435.44524,199.224 C435.40524,199.511 435.36524,199.824 435.47524,200.116 C435.56524,200.366 435.75524,200.534 435.93524,200.649 C439.30524,202.833 444.19524,198.404 445.23524,195.209 C448.20524,186.548 448.41524,178.564 444.37524,167.379 C440.66524,157.551 438.14524,151.09 435.10524,141.46 C434.82524,140.546 433.40524,144.377 433.32524,144.67 C432.98524,146.418 432.75524,148.244 432.68524,150.284" id="Fill-99" fill="#1A2F33"></path>
        <path d="M396.89524,102.247 C398.94524,106.6 401.55524,111.336 404.18524,116.072 C405.16524,117.832 406.17524,119.623 407.18524,121.431 C403.13524,117.712 399.31524,115.383 395.17524,112.936 C393.93524,112.059 381.52524,104.958 381.44524,104.964 C386.32524,111.271 390.22524,116.871 395.14524,122.792 C398.20524,126.496 400.97524,129.347 403.86524,132.017 C406.22524,134.211 408.65524,136.282 411.25524,138.617 C413.03524,140.217 414.82524,141.88 416.43524,143.903 C418.05524,145.923 419.47524,148.366 420.08524,150.753 C420.16524,151.052 420.24524,151.38 420.43524,151.635 C420.59524,151.853 420.80524,151.96 420.98524,152.016 C424.36524,153.097 426.53524,147.101 426.10524,143.589 C425.06524,134.002 421.98524,125.997 413.88524,116.003 C406.59524,107.258 401.52524,101.476 394.13524,92.631 C393.43524,91.788 394.40524,96.062 394.48524,96.384 C395.14524,98.248 395.91524,100.162 396.89524,102.247" id="Fill-100" fill="#1A2F33"></path>
    </g>
</svg>