<?xml version="1.0" encoding="UTF-8"?>
<svg width="500px" height="500px" viewBox="0 0 500 500" version="1.1" xmlns="http://www.w3.org/2000/svg" xmlns:xlink="http://www.w3.org/1999/xlink">
    <!-- Generator: Sketch 64 (93537) - https://sketch.com -->
    <title>Artboard</title>
    <desc>Created with Sketch.</desc>
    <g id="Artboard" stroke="none" stroke-width="1" fill="none" fill-rule="evenodd">
        <polyline id="Fill-58" fill="#1A2F33" points="249.907258 147.871018 275.539258 206.003018 338.699258 199.135018 301.171258 250.398018 338.699258 301.662018 275.539258 294.794018 249.907258 352.926018 224.276258 294.794018 161.116258 301.662018 198.644258 250.398018 161.116258 199.135018 224.276258 206.003018 249.907258 147.871018"></polyline>
        <path d="M37.656258,246.337018 C37.513258,246.337018 37.361258,246.362018 37.193258,246.411018 C34.765258,247.109018 31.396258,252.009018 30.341258,255.532018 C26.043258,269.579018 25.402258,280.334018 28.053258,293.895018 L28.879258,297.850018 C30.904258,307.532018 32.418258,314.781018 33.668258,324.063018 C34.005258,323.416018 34.295258,322.823018 34.400258,322.572018 C35.157258,320.220018 35.712258,317.930018 36.095258,315.573018 C36.863258,310.837018 37.219258,305.131018 37.213258,297.616018 C37.210258,295.280018 37.173258,292.808018 37.099258,290.267018 C37.083258,289.684018 37.484258,289.174018 38.053258,289.050018 C38.633258,288.923018 39.199258,289.227018 39.425258,289.763018 C41.879258,295.604018 44.874258,299.572018 48.251258,303.791018 L48.347258,303.930018 C48.929258,304.913018 53.852258,310.733018 57.008258,314.367018 C55.939258,307.595018 54.801258,301.020018 52.762258,293.723018 C51.422258,288.869018 49.822258,284.441018 47.572258,279.363018 C46.782258,277.575018 45.961258,275.806018 45.120258,273.994018 C44.232258,272.082018 43.322258,270.122018 42.403258,268.041018 C41.254258,265.432018 39.957258,262.356018 39.114258,258.838018 C38.196258,255.008018 37.957258,251.043018 38.442258,247.671018 C38.496258,247.301018 38.549258,246.937018 38.507258,246.729018 C38.232258,246.457018 37.965258,246.337018 37.656258,246.337018 Z M32.919258,328.546018 L32.807258,328.539018 C32.335258,328.484018 31.748258,328.130018 31.648258,327.316018 C30.337258,316.652018 28.732258,308.973018 26.510258,298.345018 L25.681258,294.373018 C22.980258,280.553018 23.658258,269.101018 28.025258,254.830018 C29.135258,251.122018 32.803258,245.155018 36.524258,244.086018 C37.847258,243.703018 39.073258,243.963018 40.067258,244.834018 C40.479258,245.184018 40.765258,245.680018 40.879258,246.253018 C41.003258,246.871018 40.914258,247.480018 40.844258,247.971018 C40.395258,251.091018 40.618258,254.734018 41.468258,258.273018 C42.264258,261.597018 43.511258,264.553018 44.616258,267.064018 C45.529258,269.129018 46.433258,271.076018 47.314258,272.974018 C48.162258,274.802018 48.990258,276.584018 49.784258,278.385018 C52.084258,283.574018 53.722258,288.105018 55.094258,293.075018 C57.463258,301.560018 58.628258,309.032018 59.861258,316.943018 L60.028258,318.018018 C60.101258,318.490018 59.891258,318.960018 59.491258,319.220018 C59.216258,319.400018 58.874258,319.460018 58.553258,319.383018 C57.504258,319.137018 47.497258,306.731018 46.367258,305.298018 L46.362258,305.303018 C43.988258,302.338018 41.679258,299.334018 39.623258,295.671018 C39.629258,296.328018 39.631258,296.976018 39.633258,297.614018 C39.639258,305.262018 39.274258,311.092018 38.485258,315.960018 C38.079258,318.453018 37.491258,320.872018 36.690258,323.356018 L36.673258,323.406018 C36.653258,323.458018 34.735258,328.546018 32.919258,328.546018 L32.919258,328.546018 Z" id="Fill-59" fill="#1A2F33"></path>
        <path d="M48.065258,314.403018 C47.790258,314.403018 47.408258,314.481018 46.916258,314.816018 C44.671258,316.350018 42.687258,321.487018 42.540258,324.718018 C41.849258,338.013018 43.933258,347.453018 49.970258,358.391018 L51.340258,360.798018 C56.008258,368.991018 59.497258,375.117018 63.282258,383.333018 C63.457258,382.586018 63.601258,381.882018 63.641258,381.592018 C63.765258,379.241018 63.710258,377.016018 63.471258,374.793018 C62.988258,370.318018 61.862258,365.154018 59.926258,358.544018 C59.324258,356.491018 58.655258,354.339018 57.937258,352.150018 C57.758258,351.607018 57.984258,351.014018 58.478258,350.727018 C58.972258,350.440018 59.599258,350.536018 59.983258,350.960018 C63.837258,355.211018 67.781258,357.727018 72.165258,360.347018 L72.306258,360.445018 C73.079258,361.070018 79.589258,364.755018 83.620258,366.976018 C80.742258,361.107018 78.015258,355.801018 74.137258,350.038018 C71.594258,346.233018 68.914258,342.918018 65.446258,339.286018 C64.140258,337.913018 62.802258,336.575018 61.431258,335.202018 C60.167258,333.938018 58.874258,332.644018 57.549258,331.267018 C55.675258,329.315018 53.704258,327.184018 52.001258,324.472018 C50.124258,321.490018 48.889258,318.173018 48.524258,315.135018 C48.492258,314.875018 48.450258,314.540018 48.393258,314.438018 C48.312258,314.423018 48.201258,314.403018 48.065258,314.403018 Z M63.435258,387.678018 C62.912258,387.678018 62.447258,387.364018 62.211258,386.837018 C58.019258,377.411018 54.336258,370.944018 49.238258,361.996018 L47.859258,359.573018 C41.656258,348.334018 39.416258,338.206018 40.123258,324.601018 C40.278258,321.199018 42.299258,315.040018 45.551258,312.818018 C46.743258,312.002018 48.017258,311.790018 49.232258,312.203018 C49.765258,312.375018 50.205258,312.733018 50.492258,313.234018 C50.794258,313.759018 50.864258,314.326018 50.919258,314.782018 C51.250258,317.536018 52.360258,320.497018 54.050258,323.184018 C55.632258,325.703018 57.508258,327.730018 59.294258,329.591018 C60.607258,330.954018 61.889258,332.238018 63.143258,333.491018 C64.529258,334.878018 65.879258,336.230018 67.198258,337.616018 C70.765258,341.352018 73.527258,344.768018 76.147258,348.690018 C80.709258,355.469018 83.827258,361.872018 87.130258,368.649018 L87.426258,369.256018 C87.672258,369.763018 87.537258,370.373018 87.099258,370.728018 C86.372258,371.316018 86.370258,371.317018 78.794258,367.061018 C76.232258,365.622018 71.866258,363.141018 70.864258,362.388018 C67.633258,360.456018 64.630258,358.571018 61.699258,356.026018 C61.889258,356.646018 62.073258,357.259018 62.249258,357.864018 C64.226258,364.615018 65.378258,369.912018 65.877258,374.535018 C66.131258,376.902018 66.190258,379.268018 66.056258,381.767018 L66.052258,381.824018 C66.046258,381.878018 65.444258,387.372018 63.646258,387.661018 L63.435258,387.678018 L63.435258,387.678018 Z" id="Fill-60" fill="#1A2F33"></path>
        <path d="M74.874258,369.541018 C74.315258,369.584018 73.821258,369.897018 73.354258,370.500018 C71.677258,372.658018 71.138258,377.580018 71.794258,380.373018 C74.503258,392.294018 78.899258,400.076018 87.476258,408.139018 L88.208258,408.810018 C95.558258,415.550018 100.627258,420.198018 106.728258,427.075018 C106.701258,426.321018 106.657258,425.611018 106.620258,425.324018 C106.128258,423.120018 105.499258,421.089018 104.696258,419.117018 C103.060258,415.107018 100.647258,410.717018 97.104258,405.302018 C95.989258,403.600018 94.793258,401.849018 93.553258,400.098018 C93.227258,399.636018 93.264258,399.010018 93.642258,398.589018 C94.021258,398.169018 94.640258,398.069018 95.133258,398.344018 C99.879258,401.007018 104.324258,402.136018 109.227258,403.239018 L109.374258,403.283018 C110.287258,403.615018 117.517258,405.106018 121.970258,405.979018 C117.701258,401.413018 113.707258,397.349018 108.553258,393.305018 C105.146258,390.612018 101.735258,388.430018 97.487258,386.226018 C95.763258,385.330018 94.032258,384.492018 92.199258,383.604018 C90.795258,382.926018 89.362258,382.233018 87.885258,381.489018 C85.587258,380.329018 83.148258,379.040018 80.828258,377.175018 C78.254258,375.109018 76.212258,372.551018 75.080258,369.974018 C75.015258,369.824018 74.936258,369.644018 74.874258,369.541018 Z M107.678258,431.147018 C107.295258,431.147018 106.919258,430.973018 106.637258,430.646018 C99.816258,422.736018 94.548258,417.906018 86.574258,410.594018 L85.830258,409.912018 C76.971258,401.585018 72.224258,393.187018 69.436258,380.918018 C68.626258,377.466018 69.238258,371.854018 71.442258,369.015018 C72.385258,367.800018 73.583258,367.144018 74.906258,367.117447 C75.446258,367.106018 75.993258,367.283018 76.416258,367.650018 C76.873258,368.044018 77.106258,368.568018 77.275258,368.949018 C78.274258,371.229018 80.067258,373.462018 82.345258,375.288018 C84.481258,377.008018 86.792258,378.226018 88.974258,379.328018 C90.439258,380.066018 91.861258,380.753018 93.253258,381.427018 C95.102258,382.321018 96.849258,383.166018 98.603258,384.079018 C102.990258,386.356018 106.521258,388.616018 110.050258,391.404018 C116.332258,396.334018 120.883258,401.241018 126.153258,406.923018 C126.592258,407.398018 126.652258,408.210018 126.197258,408.671018 C125.663258,409.212018 125.661258,409.213018 117.440258,407.540018 C114.606258,406.964018 109.767258,405.958018 108.631258,405.586018 C105.006258,404.769018 101.616258,403.932018 98.145258,402.492018 C98.478258,402.990018 98.806258,403.485018 99.128258,403.975018 C102.760258,409.525018 105.240258,414.046018 106.936258,418.202018 C107.798258,420.316018 108.470258,422.490018 108.994258,424.846018 L109.004258,424.905018 C109.014258,424.959018 109.865258,430.250018 108.231258,431.021018 C108.051258,431.106018 107.864258,431.147018 107.678258,431.147018 L107.678258,431.147018 Z" id="Fill-61" fill="#1A2F33"></path>
        <path d="M114.316258,410.978018 C113.737258,411.199018 113.318258,411.681018 113.019258,412.453018 C112.037258,414.979018 112.795258,419.503018 114.126258,421.859018 C119.826258,432.117018 126.083258,438.148018 136.446258,443.377018 C145.282258,447.714018 151.873258,450.949018 159.987258,456.150018 C159.763258,455.446018 159.534258,454.789018 159.426258,454.528018 C158.372258,452.562018 157.230258,450.795018 155.935258,449.132018 C153.311258,445.766018 149.732258,442.153018 144.993258,438.086018 C143.471258,436.782018 141.864258,435.458018 140.214258,434.153018 C139.770258,433.802018 139.629258,433.191018 139.872258,432.681018 C140.115258,432.172018 140.676258,431.891018 141.233258,432.025018 C146.473258,433.217018 151.064258,433.083018 156.094258,432.804018 L156.234258,432.804018 C157.218258,432.849018 164.540258,432.358018 169.072258,432.006018 C164.007258,428.936018 158.959258,426.059018 152.859258,423.612018 C148.862258,421.998018 145.011258,420.888018 140.368258,420.013018 C138.352258,419.630018 136.340258,419.317018 134.210258,418.985018 C132.812258,418.767018 131.385258,418.545018 129.912258,418.296018 C127.392258,417.867018 124.706258,417.361018 122.013258,416.305018 C118.990258,415.123018 116.357258,413.343018 114.598258,411.290018 C114.508258,411.186018 114.396258,411.054018 114.316258,410.978018 Z M161.645258,459.852018 C161.376258,459.852018 161.102258,459.769018 160.850258,459.603018 C151.822258,453.619018 145.276258,450.406018 135.368258,445.543018 C124.656258,440.138018 117.894258,433.621018 112.017258,423.042018 C110.386258,420.158018 109.489258,414.857018 110.762258,411.577018 C111.339258,410.090018 112.332258,409.079018 113.632258,408.654018 C114.152258,408.473018 114.704258,408.487018 115.210258,408.704018 C115.775258,408.944018 116.144258,409.375018 116.413258,409.690018 C117.940258,411.472018 120.235258,413.012018 122.894258,414.051018 C125.375258,415.024018 127.922258,415.502018 130.318258,415.909018 C131.779258,416.157018 133.195258,416.378018 134.582258,416.594018 C136.733258,416.929018 138.764258,417.245018 140.819258,417.635018 C145.621258,418.540018 149.615258,419.691018 153.763258,421.368018 C161.301258,424.392018 167.209258,428.015018 173.463258,431.853018 C173.743258,432.026018 173.942258,432.306018 174.013258,432.627018 C174.082258,432.949018 174.019258,433.285018 173.834258,433.559018 C173.452258,434.129018 173.452258,434.129018 165.156258,434.722018 C162.270258,434.929018 157.354258,435.263018 156.168258,435.223018 C152.457258,435.430018 148.972258,435.554018 145.272258,435.150018 C145.710258,435.517018 146.143258,435.884018 146.569258,436.250018 C151.431258,440.423018 155.119258,444.150018 157.844258,447.644018 C159.235258,449.432018 160.457258,451.323018 161.582258,453.429018 L161.609258,453.481018 C161.631258,453.528018 163.842258,458.362018 162.488258,459.535018 C162.244258,459.746018 161.949258,459.852018 161.645258,459.852018 L161.645258,459.852018 Z" id="Fill-62" fill="#1A2F33"></path>
        <path d="M163.052258,438.822018 C162.548258,439.187018 162.270258,439.760018 162.188258,440.582018 C161.919258,443.235018 163.842258,447.332018 165.740258,449.222018 C173.948258,457.518018 181.585258,461.688018 192.985258,464.103018 C203.144258,466.149018 210.143258,467.620018 219.083258,470.563018 C218.689258,469.950018 218.304258,469.390018 218.133258,469.170018 C216.586258,467.524018 215.011258,466.099018 213.319258,464.812018 C209.868258,462.196018 205.450258,459.601018 199.812258,456.880018 C197.991258,456.004018 196.087258,455.134018 194.152258,454.297018 C193.632258,454.072018 193.337258,453.516018 193.444258,452.961018 C193.550258,452.404018 194.028258,451.996018 194.594258,451.978018 C199.963258,451.803018 204.190258,450.585018 209.157258,449.010018 L209.286258,448.977018 C210.226258,448.790018 217.154258,446.508018 221.451258,445.054018 C215.911258,443.382018 210.113258,441.803018 203.554258,440.974018 C199.258258,440.417018 195.248258,440.325018 190.548258,440.671018 C188.423258,440.825018 186.322258,441.051018 184.097258,441.289018 C182.767258,441.432018 181.410258,441.579018 180.011258,441.712018 C177.462258,441.958018 174.736258,442.171018 171.873258,441.869018 C168.654258,441.536018 165.648258,440.533018 163.409258,439.047018 C163.287258,438.966018 163.147258,438.872018 163.052258,438.822018 Z M221.340258,473.797018 C221.178258,473.797018 221.011258,473.769018 220.845258,473.712018 C210.756258,470.220018 203.844258,468.758018 192.495258,466.474018 C180.729258,463.980018 172.484258,459.479018 164.025258,450.930018 C161.698258,448.610018 159.431258,443.798018 159.780258,440.339018 C159.939258,438.756018 160.629258,437.519018 161.774258,436.764018 C162.239258,436.453018 162.770258,436.323018 163.308258,436.394018 C163.907258,436.472018 164.376258,436.783018 164.717258,437.011018 C166.667258,438.305018 169.285258,439.168018 172.124258,439.463018 C174.766258,439.740018 177.355258,439.537018 179.779258,439.304018 C181.171258,439.171018 182.518258,439.025018 183.838258,438.884018 C186.085258,438.643018 188.207258,438.414018 190.371258,438.259018 C195.240258,437.903018 199.399258,437.999018 203.861258,438.573018 C212.028258,439.607018 218.972258,441.749018 225.688258,443.821018 C226.012258,443.921018 226.278258,444.151018 226.424258,444.457018 C226.570258,444.762018 226.580258,445.115018 226.453258,445.430018 C226.210258,446.032018 226.210258,446.032018 218.379258,448.634018 C215.641258,449.544018 210.953258,451.082018 209.833258,451.334018 C206.315258,452.449018 202.991258,453.434018 199.334258,453.976018 C199.849258,454.216018 200.359258,454.458018 200.862258,454.700018 C206.648258,457.492018 211.200258,460.170018 214.781258,462.885018 C216.596258,464.264018 218.280258,465.788018 219.930258,467.548018 L219.968258,467.590018 C220.002258,467.632018 223.407258,471.781018 222.416258,473.232018 C222.167258,473.597018 221.773258,473.797018 221.340258,473.797018 L221.340258,473.797018 Z" id="Fill-63" fill="#1A2F33"></path>
        <path d="M217.442258,453.109018 C217.074258,453.565018 216.960258,454.159018 217.081258,454.934018 C217.496258,457.573018 220.462258,461.093018 222.837258,462.476018 C232.996258,468.499018 241.493258,470.698018 253.169258,470.302018 C263.469258,469.856018 270.597258,469.608018 280.077258,470.335018 C279.541258,469.845018 279.032258,469.404018 278.810258,469.234018 C276.876258,468.010018 274.970258,467.003018 272.980258,466.157018 C268.932258,464.438018 263.963258,462.977018 257.789258,461.690018 C255.807258,461.279018 253.733258,460.893018 251.625258,460.542018 C251.066258,460.450018 250.647258,459.981018 250.616258,459.415018 C250.584258,458.850018 250.950258,458.338018 251.495258,458.184018 C256.641258,456.733018 260.405258,454.549018 264.789258,451.843018 L264.908258,451.779018 C265.766258,451.374018 271.850258,447.529018 275.621258,445.101018 C269.789258,444.797018 263.735258,444.645018 257.168258,445.406018 C252.868258,445.893018 248.965258,446.761018 244.507258,448.223018 C242.462258,448.892018 240.458258,449.629018 238.336258,450.410018 C237.120258,450.857018 235.879258,451.313018 234.596258,451.769018 C232.188258,452.623018 229.601258,453.490018 226.772258,453.894018 C223.570258,454.358018 220.401258,454.124018 217.850258,453.239018 C217.714258,453.191018 217.549258,453.135018 217.442258,453.109018 Z M282.775258,472.985018 L282.626258,472.978018 C271.859258,471.990018 264.454258,472.235018 253.262258,472.719018 C241.227258,473.112018 232.063258,470.757018 221.611258,464.563018 C218.708258,462.871018 215.231258,458.747018 214.691258,455.310018 C214.449258,453.773018 214.795258,452.433018 215.691258,451.433018 C216.054258,451.018018 216.536258,450.757018 217.078258,450.692018 C217.673258,450.610018 218.210258,450.802018 218.598258,450.937018 C220.835258,451.711018 223.599258,451.909018 226.428258,451.498018 C229.039258,451.126018 231.399258,450.336018 233.786258,449.488018 C235.061258,449.036018 236.293258,448.582018 237.500258,448.138018 C239.644258,447.350018 241.668258,446.605018 243.754258,445.924018 C248.373258,444.409018 252.426258,443.507018 256.893258,443.001018 C265.043258,442.059018 272.347258,442.479018 279.412258,442.890018 C279.745258,442.909018 280.055258,443.065018 280.269258,443.320018 C280.484258,443.576018 280.583258,443.908018 280.544258,444.239018 C280.467258,444.898018 280.467258,444.898018 273.563258,449.289018 C271.156258,450.819018 267.032258,453.421018 266.010258,453.935018 C262.911258,455.845018 259.966258,457.585018 256.584258,458.980018 C257.157258,459.091018 257.723258,459.206018 258.282258,459.321018 C264.615258,460.641018 269.731258,462.148018 273.926258,463.930018 C276.052258,464.835018 278.086258,465.909018 280.145258,467.214018 L280.195258,467.247018 C280.240258,467.279018 284.668258,470.426018 284.038258,472.133018 C283.843258,472.662018 283.357258,472.985018 282.775258,472.985018 L282.775258,472.985018 Z" id="Fill-64" fill="#1A2F33"></path>
        <path d="M273.856258,453.846018 C273.642258,454.345018 273.685258,454.919018 273.982258,455.606018 C275.039258,458.050018 278.955258,460.848018 281.618258,461.623018 C293.073258,465.038018 301.887258,465.132018 313.065258,461.962018 C322.945258,459.049018 329.797258,457.088018 339.061258,455.477018 C338.406258,455.130018 337.792258,454.827018 337.539258,454.720018 C335.342258,454.008018 333.226258,453.499018 331.073258,453.165018 C326.712258,452.493018 321.511258,452.285018 315.179258,452.525018 C313.113258,452.605018 311.002258,452.731018 308.908258,452.896018 C308.365258,452.939018 307.824258,452.588018 307.657258,452.048018 C307.490258,451.507018 307.719258,450.923018 308.210258,450.640018 C312.795258,448.005018 315.979258,444.854018 319.373258,441.307018 L319.479258,441.210018 C320.201258,440.613018 325.070258,435.394018 328.065258,432.126018 C322.124258,433.307018 316.360258,434.607018 310.240258,436.913018 C306.206258,438.422018 302.661258,440.199018 298.741258,442.675018 C296.949258,443.805018 295.213258,444.990018 293.376258,446.246018 C292.311258,446.974018 291.224258,447.716018 290.094258,448.469018 C287.987258,449.870018 285.711258,451.327018 283.081258,452.389018 C280.105258,453.597018 276.976258,454.122018 274.270258,453.876018 C274.134258,453.862018 273.968258,453.847018 273.856258,453.846018 Z M297.948258,466.661018 C292.489258,466.661018 287.016258,465.757018 280.934258,463.944018 C277.633258,462.983018 273.155258,459.788018 271.762258,456.567018 C271.157258,455.169018 271.150258,453.818018 271.740258,452.656018 C272.066258,452.013018 272.558258,451.718018 272.914258,451.584018 C273.477258,451.372018 274.041258,451.421018 274.453258,451.462018 C276.817258,451.683018 279.544258,451.211018 282.172258,450.146018 C284.596258,449.167018 286.667258,447.841018 288.753258,446.454018 C289.874258,445.707018 290.952258,444.970018 292.010258,444.247018 C293.867258,442.979018 295.621258,441.781018 297.450258,440.629018 C301.514258,438.060018 305.197258,436.216018 309.389258,434.648018 C316.903258,431.817018 323.819258,430.478018 331.140258,429.060018 C331.460258,428.994018 331.796258,429.067018 332.065258,429.257018 C332.334258,429.446018 332.515258,429.736018 332.566258,430.061018 C332.671258,430.734018 332.671258,430.734018 327.151258,436.685018 C325.234258,438.752018 321.944258,442.272018 321.079258,443.024018 C318.591258,445.623018 316.204258,448.020018 313.299258,450.187018 C313.897258,450.157018 314.493258,450.130018 315.085258,450.107018 C321.575258,449.857018 326.925258,450.077018 331.442258,450.774018 C333.740258,451.130018 335.992258,451.672018 338.328258,452.432018 L338.375258,452.448018 C338.428258,452.468018 343.561258,454.430018 343.378258,456.236018 C343.327258,456.735018 342.949258,457.291018 342.218258,457.406018 C331.609258,459.086018 324.821258,461.017018 313.738258,464.286018 C308.162258,465.869018 303.061258,466.661018 297.948258,466.661018 L297.948258,466.661018 Z" id="Fill-65" fill="#1A2F33"></path>
        <path d="M328.655258,441.031018 C328.590258,441.556018 328.783258,442.092018 329.240258,442.673018 C330.915258,444.801018 335.467258,446.562018 338.267258,446.656018 C350.286258,447.142018 358.811258,445.020018 368.731258,439.095018 C377.101258,433.968018 383.351258,430.139018 392.121258,425.957018 C391.381258,425.793018 390.691258,425.659018 390.411258,425.620018 C388.101258,425.516018 385.931258,425.585018 383.751258,425.831018 C379.401258,426.330018 374.331258,427.490018 368.241258,429.375018 C366.341258,429.964018 364.331258,430.628018 362.271258,431.350018 C361.741258,431.537018 361.151258,431.330018 360.851258,430.854018 C360.551258,430.375018 360.621258,429.754018 361.021258,429.354018 C364.761258,425.609018 366.981258,421.725018 369.301258,417.400018 L369.381258,417.271018 C369.931258,416.503018 373.241258,410.101018 375.251258,406.125018 C369.641258,408.970018 364.581258,411.677018 359.301258,415.487018 C355.811258,417.996018 352.861258,420.626018 349.735258,424.018018 C348.337258,425.532018 347.008258,427.077018 345.601258,428.715018 C344.733258,429.725018 343.848258,430.756018 342.920258,431.807018 C341.265258,433.685018 339.459258,435.658018 337.180258,437.352018 C334.617258,439.259018 331.727258,440.540018 329.043258,440.961018 C328.917258,440.981018 328.762258,441.005018 328.655258,441.031018 Z M341.363258,449.140018 C340.322258,449.140018 339.263258,449.117018 338.177258,449.074018 C334.717258,448.957018 329.532258,446.959018 327.340258,444.169018 C326.402258,442.975018 326.043258,441.679018 326.303258,440.420018 C326.412258,439.862018 326.713258,439.392018 327.172258,439.073018 C327.659258,438.729018 328.219258,438.641018 328.626258,438.576018 C330.972258,438.209018 333.482258,437.088018 335.736258,435.410018 C337.827258,433.856018 339.534258,431.988018 341.105258,430.207018 C342.026258,429.163018 342.905258,428.141018 343.766258,427.138018 C345.188258,425.483018 346.530258,423.921018 347.956258,422.377018 C351.201258,418.859018 354.261258,416.129018 357.891258,413.523018 C364.201258,408.967018 370.141258,405.982018 377.011258,402.526018 L377.371258,402.346018 C377.681258,402.193018 378.031258,402.174018 378.351258,402.296018 C378.671258,402.418018 378.921258,402.666018 379.041258,402.981018 C379.281258,403.593018 379.281258,403.593018 375.571258,410.821018 C374.271258,413.340018 372.051258,417.634018 371.401258,418.601018 C369.691258,421.785018 368.031258,424.745018 365.781258,427.614018 C366.371258,427.425018 366.951258,427.240018 367.521258,427.064018 C373.751258,425.134018 378.971258,423.944018 383.481258,423.427018 C385.801258,423.164018 388.111258,423.091018 390.561258,423.205018 L390.621258,423.209018 C390.671258,423.215018 396.141258,423.745018 396.451258,425.545018 C396.551258,426.145018 396.231258,426.709018 395.651258,426.979018 C385.631258,431.577018 379.411258,435.391018 369.991258,441.165018 C360.641258,446.745018 352.151258,449.140018 341.363258,449.140018 L341.363258,449.140018 Z" id="Fill-66" fill="#1A2F33"></path>
        <path d="M378.181258,414.655018 C378.261258,415.202018 378.601258,415.686018 379.221258,416.142018 C381.421258,417.756018 386.261258,418.246018 388.951258,417.589018 C400.671258,414.814018 408.331258,410.364018 416.261258,401.717018 L416.981258,400.908018 C423.461258,393.659018 428.301258,388.252018 435.281258,381.725018 C434.521258,381.786018 433.801258,381.863018 433.511258,381.911018 C431.261258,382.510018 429.191258,383.235018 427.181258,384.127018 C423.151258,385.920018 418.711258,388.491018 413.211258,392.218018 C411.511258,393.369018 409.761258,394.603018 408.001258,395.883018 C407.551258,396.219018 406.921258,396.191018 406.491258,395.816018 C406.071258,395.443018 405.961258,394.825018 406.231258,394.327018 C408.831258,389.558018 409.921258,385.065018 410.981258,380.106018 L411.021258,379.958018 C411.351258,379.026018 412.801258,371.679018 413.661258,367.124018 C409.031258,371.668018 404.921258,375.827018 400.881258,381.112018 C398.181258,384.609018 396.051258,388.045018 393.951258,392.255018 C393.031258,394.086018 392.191258,395.921018 391.301258,397.865018 C390.711258,399.145018 390.111258,400.448018 389.471258,401.787018 C388.381258,404.078018 387.161258,406.504018 385.421258,408.772018 C383.471258,411.324018 381.021258,413.353018 378.541258,414.482018 C378.431258,414.534018 378.281258,414.600018 378.181258,414.655018 Z M386.161258,420.301018 C383.181258,420.301018 379.831258,419.588018 377.791258,418.092018 C376.541258,417.178018 375.841258,416.005018 375.751258,414.700018 C375.711258,414.135018 375.871258,413.601018 376.221258,413.171018 C376.611258,412.697018 377.141258,412.461018 377.521258,412.289018 C379.671258,411.311018 381.781258,409.544018 383.501258,407.300018 C385.101258,405.216018 386.251258,402.920018 387.291258,400.746018 C387.921258,399.419018 388.511258,398.124018 389.101258,396.854018 C390.001258,394.892018 390.851258,393.038018 391.781258,391.174018 C393.961258,386.819018 396.171258,383.262018 398.961258,379.639018 C403.591258,373.583018 408.261258,369.018018 413.661258,363.733018 L414.651258,362.770018 C414.911258,362.513018 415.281258,362.386018 415.641258,362.433018 C416.001258,362.478018 416.331258,362.685018 416.521258,362.996018 C416.841258,363.511018 416.841258,363.511018 415.241258,371.715018 C414.681258,374.608018 413.691258,379.542018 413.341258,380.678018 C412.551258,384.337018 411.741258,387.758018 410.341258,391.248018 C410.851258,390.897018 411.351258,390.552018 411.851258,390.215018 C417.471258,386.406018 422.031258,383.769018 426.201258,381.915018 C428.341258,380.964018 430.541258,380.193018 432.941258,379.560018 L433.001258,379.546018 C433.051258,379.534018 438.411258,378.440018 439.241258,380.061018 C439.521258,380.603018 439.391258,381.238018 438.901258,381.676018 C430.901258,388.975018 426.081258,394.364018 418.781258,402.520018 L418.051258,403.342018 C409.851258,412.277018 401.591258,417.083018 389.521258,419.942018 C388.541258,420.179018 387.381258,420.301018 386.161258,420.301018 L386.161258,420.301018 Z" id="Fill-67" fill="#1A2F33"></path>
        <path d="M418.761258,374.743018 C418.981258,375.302018 419.461258,375.699018 420.211258,375.970018 C422.801258,376.902018 427.451258,375.937018 429.871258,374.451018 C440.391258,368.086018 446.521258,361.182018 451.751258,349.823018 L452.931258,347.180018 C456.921258,338.171018 459.911258,331.455018 464.541258,322.753018 C463.841258,323.074018 463.181258,323.397018 462.921258,323.549018 C460.931258,324.945018 459.151258,326.408018 457.471258,328.019018 C454.161258,331.198018 450.611258,335.333018 446.301258,341.036018 C444.991258,342.772018 443.651258,344.605018 442.321258,346.484018 C441.981258,346.952018 441.371258,347.117018 440.851258,346.890018 C440.321258,346.661018 440.031258,346.096018 440.151258,345.535018 C441.341258,339.802018 441.151258,334.828018 440.811258,329.382018 L440.811258,329.235018 C440.881258,328.152018 440.241258,320.161018 439.801258,315.153018 C436.631258,321.461018 433.871258,327.091018 431.451258,333.807018 C429.831258,338.267018 428.711258,342.461018 427.841258,347.408018 C427.471258,349.497018 427.171258,351.558018 426.851258,353.739018 C426.621258,355.269018 426.401258,356.827018 426.141258,358.432018 C425.721258,361.054018 425.211258,363.848018 424.151258,366.658018 C422.971258,369.799018 421.181258,372.553018 419.101258,374.415018 C418.981258,374.525018 418.841258,374.655018 418.761258,374.743018 Z M422.711258,378.751018 C421.501258,378.751018 420.361258,378.596018 419.391258,378.247018 C417.911258,377.713018 416.891258,376.750018 416.451258,375.464018 C416.261258,374.940018 416.271258,374.385018 416.481258,373.873018 C416.721258,373.312018 417.141258,372.932018 417.441258,372.656018 C419.281258,371.008018 420.841258,368.589018 421.891258,365.805018 C422.871258,363.204018 423.351258,360.547018 423.751258,358.047018 C424.011258,356.454018 424.231258,354.907018 424.461258,353.387018 C424.781258,351.188018 425.081258,349.109018 425.461258,346.987018 C426.361258,341.897018 427.501258,337.577018 429.171258,332.983018 C431.831258,325.623018 435.011258,319.303018 438.371258,312.611018 L439.521258,310.329018 C439.701258,309.962018 440.061258,309.714018 440.471258,309.668018 C440.881258,309.628018 441.281258,309.787018 441.541258,310.105018 C442.161258,310.863018 443.141258,327.486018 443.221258,329.230018 L443.231258,329.230018 C443.481258,333.251018 443.651258,337.029018 443.271258,341.058018 C443.641258,340.558018 444.011258,340.064018 444.371258,339.578018 C448.761258,333.771018 452.391258,329.543018 455.791258,326.273018 C457.571258,324.563018 459.461258,323.015018 461.571258,321.538018 L461.631258,321.499018 C461.821258,321.380018 466.421258,318.573018 467.751258,319.830018 C468.091258,320.152018 468.351258,320.782018 467.971258,321.493018 C462.611258,331.330018 459.471258,338.390018 455.141258,348.162018 L453.961258,350.820018 C448.491258,362.679018 442.101258,369.879018 431.131258,376.517018 C429.031258,377.806018 425.681258,378.751018 422.711258,378.751018 L422.711258,378.751018 Z" id="Fill-68" fill="#1A2F33"></path>
        <path d="M450.221258,250.116018 C448.991258,258.288018 447.951258,265.470018 447.531258,273.624018 C447.231258,279.045018 447.341258,283.951018 447.891258,289.534018 C448.121258,291.895018 448.411258,294.189018 448.711258,296.619018 C448.921258,298.306018 449.131258,300.021018 449.331258,301.789018 C449.651258,304.682018 449.941258,307.779018 449.711258,311.057018 C449.451258,314.703018 448.511258,318.150018 447.061258,320.758018 C446.931258,320.985018 446.781258,321.261018 446.771258,321.378018 C446.981258,321.683018 447.381258,322.117018 448.401258,322.165018 L448.591258,322.168018 C451.281258,322.168018 455.411258,319.580018 457.251258,317.266018 C464.191258,308.659018 469.231258,299.602018 471.321258,283.360018 L471.841258,278.804018 C473.031258,268.437018 474.001258,260.067018 475.871258,249.106018 C475.311258,249.719018 474.811258,250.294018 474.631258,250.516018 C473.131258,252.815018 471.841258,255.109018 470.691258,257.525018 C468.441258,262.249018 466.291258,267.904018 463.711258,275.862018 C462.951258,278.223018 462.181258,280.686018 461.441258,283.184018 C461.271258,283.745018 460.721258,284.100018 460.141258,284.040018 C459.561258,283.975018 459.111258,283.506018 459.071258,282.922018 C458.601258,276.340018 457.021258,270.994018 455.161258,265.182018 L455.121258,265.055018 C454.881258,263.842018 452.061258,255.467018 450.221258,250.116018 Z M448.571258,324.588018 C448.481258,324.588018 448.381258,324.586018 448.291258,324.581018 C446.741258,324.509018 445.511258,323.853018 444.751258,322.684018 C444.441258,322.230018 444.301258,321.686018 444.361258,321.128018 C444.421258,320.520018 444.701258,320.025018 444.921258,319.628018 C446.231258,317.275018 447.061258,314.187018 447.301258,310.885018 C447.511258,307.809018 447.231258,304.838018 446.921258,302.058018 C446.731258,300.299018 446.521258,298.594018 446.311258,296.917018 C446.011258,294.471018 445.721258,292.161018 445.481258,289.769018 C444.921258,284.061018 444.811258,279.042018 445.111258,273.495018 C445.551258,264.861018 446.691258,257.350018 448.001258,248.652018 L448.551258,244.959018 C448.621258,244.506018 448.931258,244.131018 449.371258,243.988018 C449.811258,243.847018 450.281258,243.960018 450.611258,244.285018 C451.261258,244.949018 456.941258,262.766018 457.461258,264.443018 L457.461258,264.442018 C458.821258,268.666018 460.031258,272.654018 460.791258,277.055018 C461.001258,276.403018 461.201258,275.757018 461.411258,275.119018 C464.021258,267.054018 466.211258,261.307018 468.501258,256.484018 C469.711258,253.954018 471.061258,251.557018 472.631258,249.153018 L472.671258,249.095018 C473.041258,248.593018 476.341258,244.210018 478.021258,244.930018 C478.471258,245.123018 478.941258,245.647018 478.791258,246.492018 C476.571258,258.922018 475.541258,267.818018 474.251258,279.080018 L473.721258,283.653018 C471.851258,298.239018 467.761258,308.084018 459.141258,318.779018 C456.871258,321.635018 452.141258,324.588018 448.571258,324.588018 L448.571258,324.588018 Z" id="Fill-69" fill="#1A2F33"></path>
        <path d="M442.811258,186.431018 C443.881258,193.205018 445.011258,199.780018 447.051258,207.075018 C448.391258,211.930018 449.991258,216.359018 452.241258,221.437018 C453.031258,223.227018 453.861258,225.000018 454.701258,226.816018 C455.591258,228.724018 456.501258,230.682018 457.411258,232.759018 C458.561258,235.368018 459.861258,238.445018 460.701258,241.964018 C461.621258,245.788018 461.861258,249.755018 461.371258,253.128018 C461.321258,253.499018 461.261258,253.863018 461.311258,254.072018 C461.711258,254.469018 462.091258,254.538018 462.621258,254.389018 C465.051258,253.691018 468.421258,248.791018 469.471258,245.268018 C473.771258,231.219018 474.411258,220.466018 471.761258,206.904018 L470.941258,202.955018 C468.911258,193.271018 467.401258,186.020018 466.151258,176.735018 C465.811258,177.383018 465.521258,177.977018 465.421258,178.228018 C464.661258,180.571018 464.101258,182.861018 463.721258,185.227018 C462.951258,189.959018 462.601258,195.666018 462.601258,203.184018 C462.601258,205.532018 462.641258,208.005018 462.721258,210.532018 C462.731258,211.115018 462.331258,211.625018 461.761258,211.749018 C461.191258,211.877018 460.621258,211.571018 460.391258,211.036018 C457.931258,205.193018 454.941258,201.226018 451.561258,197.008018 L451.471258,196.867018 C450.891258,195.888018 445.961258,190.068018 442.811258,186.431018 Z M462.131258,256.885018 C461.251258,256.885018 460.441258,256.575018 459.751258,255.965018 C459.341258,255.614018 459.051258,255.119018 458.931258,254.547018 C458.811258,253.929018 458.901258,253.321018 458.971258,252.832018 C459.421258,249.705018 459.201258,246.064018 458.341258,242.527018 C457.551258,239.203018 456.301258,236.247018 455.201258,233.736018 C454.291258,231.674018 453.381258,229.731018 452.511258,227.835018 C451.651258,226.004018 450.821258,224.219018 450.031258,222.415018 C447.731258,217.226018 446.091258,212.693018 444.721258,207.722018 C442.351258,199.249018 441.191258,191.784018 439.961258,183.880018 L439.791258,182.780018 C439.711258,182.307018 439.931258,181.833018 440.331258,181.575018 C440.601258,181.398018 440.951258,181.335018 441.261258,181.417018 C442.321258,181.667018 452.311258,194.064018 453.441258,195.501018 L453.451258,195.495018 C455.831258,198.460018 458.131258,201.464018 460.191258,205.126018 C460.181258,204.472018 460.181258,203.824018 460.181258,203.188018 C460.181258,195.533018 460.541258,189.703018 461.331258,184.840018 C461.741258,182.337018 462.321258,179.919018 463.131258,177.444018 L463.141258,177.395018 C463.161258,177.342018 465.131258,172.000018 467.011258,172.260018 C467.481258,172.315018 468.071258,172.668018 468.171258,173.481018 C469.481258,184.149018 471.081258,191.829018 473.301258,202.460018 L474.131258,206.426018 C476.841258,220.247018 476.161258,231.699018 471.791258,245.970018 C470.681258,249.679018 467.011258,255.645018 463.291258,256.714018 C462.891258,256.828018 462.511258,256.885018 462.131258,256.885018 L462.131258,256.885018 Z" id="Fill-70" fill="#1A2F33"></path>
        <path d="M416.191258,133.823018 C419.071258,139.694018 421.801258,144.999018 425.681258,150.761018 C428.221258,154.563018 430.901258,157.879018 434.371258,161.514018 C435.671258,162.884018 437.011258,164.219018 438.381258,165.588018 C439.641258,166.855018 440.941258,168.152018 442.261258,169.533018 C444.051258,171.395018 446.101258,173.608018 447.811258,176.327018 C449.691258,179.307018 450.921258,182.622018 451.291258,185.662018 C451.321258,185.914018 451.361258,186.257018 451.421258,186.362018 C451.671258,186.408018 452.161258,186.488018 452.901258,185.982018 C455.141258,184.450018 457.131258,179.314018 457.271258,176.081018 C457.971258,162.786018 455.881258,153.347018 449.841258,142.409018 L448.481258,140.014018 C443.811258,131.815018 440.321258,125.685018 436.531258,117.466018 C436.361258,118.214018 436.211258,118.918018 436.171258,119.208018 C436.051258,121.558018 436.101258,123.783018 436.341258,126.007018 C436.831258,130.484018 437.951258,135.647018 439.891258,142.255018 C440.491258,144.294018 441.151258,146.447018 441.881258,148.650018 C442.051258,149.194018 441.831258,149.787018 441.331258,150.073018 C440.841258,150.360018 440.221258,150.262018 439.831258,149.840018 C435.981258,145.590018 432.041258,143.075018 427.651258,140.453018 L427.511258,140.355018 C426.731258,139.726018 420.221258,136.043018 416.191258,133.823018 Z M451.811258,188.801018 C451.401258,188.801018 450.991258,188.732018 450.581258,188.596018 C450.051258,188.424018 449.611258,188.067018 449.321258,187.567018 C449.021258,187.035018 448.951258,186.459018 448.891258,185.997018 C448.561258,183.260018 447.451258,180.299018 445.761258,177.615018 C444.181258,175.090018 442.301258,173.065018 440.521258,171.209018 C439.201258,169.842018 437.921258,168.555018 436.661258,167.299018 C435.281258,165.914018 433.931258,164.566018 432.621258,163.184018 C429.051258,159.444018 426.281258,156.028018 423.671258,152.109018 C419.111258,145.342018 416.001258,138.951018 412.701258,132.184018 L412.391258,131.544018 C412.141258,131.038018 412.281258,130.428018 412.711258,130.074018 C413.441258,129.478018 413.451258,129.484018 421.021258,133.738018 C423.581258,135.177018 427.951258,137.658018 428.951258,138.412018 C432.181258,140.344018 435.181258,142.229018 438.111258,144.775018 C437.931258,144.152018 437.741258,143.539018 437.561258,142.935018 C435.591258,136.186018 434.441258,130.889018 433.941258,126.265018 C433.681258,123.896018 433.621258,121.531018 433.761258,119.033018 L433.761258,118.976018 C433.771258,118.922018 434.371258,113.426018 436.171258,113.138018 C436.781258,113.040018 437.341258,113.364018 437.601258,113.961018 C441.801258,123.393018 445.481258,129.862018 450.581258,138.816018 L451.961258,141.226018 C458.161258,152.465018 460.401258,162.593018 459.691258,176.199018 C459.541258,179.601018 457.511258,185.762018 454.261258,187.981018 C453.471258,188.525018 452.631258,188.801018 451.811258,188.801018 L451.811258,188.801018 Z" id="Fill-71" fill="#1A2F33"></path>
        <path d="M377.841258,94.821018 C382.101258,99.378018 386.101258,103.448018 391.261258,107.495018 C394.671258,110.191018 398.091258,112.373018 402.331258,114.572018 C404.061258,115.473018 405.791258,116.312018 407.631258,117.201018 C409.031258,117.878018 410.461258,118.570018 411.931258,119.309018 C414.231258,120.472018 416.671258,121.761018 418.981258,123.623018 C421.561258,125.690018 423.601258,128.248018 424.731258,130.825018 C424.801258,130.968018 424.881258,131.151018 424.941258,131.257018 C425.501258,131.216018 425.991258,130.902018 426.461258,130.299018 C428.141258,128.141018 428.681258,123.219018 428.021258,120.426018 C425.311258,108.505018 420.911258,100.723018 412.341258,92.661018 L411.581258,91.966018 C404.241258,85.235018 399.181258,80.592018 393.091258,73.725018 C393.111258,74.479018 393.161258,75.189018 393.191258,75.475018 C393.681258,77.679018 394.311258,79.709018 395.121258,81.683018 C396.761258,85.699018 399.171258,90.089018 402.711258,95.497018 C403.851258,97.231018 405.041258,98.983018 406.261258,100.702018 C406.591258,101.164018 406.551258,101.790018 406.171258,102.211018 C405.801258,102.631018 405.171258,102.731018 404.681258,102.456018 C399.941258,99.794018 395.491258,98.665018 390.591258,97.561018 L390.441258,97.518018 C389.531258,97.187018 382.301258,95.694018 377.841258,94.821018 Z M424.831258,133.682018 C424.301258,133.682018 423.801258,133.500018 423.401258,133.153018 C422.931258,132.747018 422.701258,132.216018 422.531258,131.827018 C421.541258,129.570018 419.751258,127.337018 417.471258,125.510018 C415.331258,123.795018 413.021258,122.574018 410.841258,121.471018 C409.381258,120.737018 407.961258,120.051018 406.581258,119.380018 C404.721258,118.482018 402.971258,117.635018 401.211258,116.719018 C396.831258,114.448018 393.301258,112.189018 389.761258,109.397018 C383.471258,104.460018 378.921258,99.546018 373.641258,93.856018 C373.211258,93.384018 373.161258,92.597018 373.611258,92.135018 C374.151258,91.586018 374.151258,91.585018 382.371258,93.259018 C385.211258,93.836018 390.051258,94.842018 391.181258,95.215018 C394.811258,96.031018 398.201258,96.868018 401.671258,98.308018 C401.341258,97.813018 401.011258,97.318018 400.691258,96.824018 C397.061258,91.281018 394.581258,86.760018 392.881258,82.596018 C392.021258,80.481018 391.341258,78.309018 390.821258,75.954018 L390.811258,75.898018 C390.801258,75.845018 389.961258,70.545018 391.581258,69.780018 C392.131258,69.518018 392.761258,69.668018 393.181258,70.154018 C399.991258,78.056018 405.251258,82.880018 413.221258,90.182018 L413.981258,90.888018 C422.841258,99.214018 427.591258,107.612018 430.381258,119.881018 C431.191258,123.334018 430.581258,128.945018 428.371258,131.784018 C427.431258,132.999018 426.231258,133.655018 424.911258,133.681018 L424.831258,133.682018 L424.831258,133.682018 Z" id="Fill-72" fill="#1A2F33"></path>
        <path d="M330.743258,68.794018 C335.814258,71.867018 340.865258,74.745018 346.955258,77.187018 C350.951258,78.801018 354.801258,79.911018 359.441258,80.786018 C361.461258,81.169018 363.481258,81.483018 365.611258,81.815018 C367.011258,82.034018 368.431258,82.256018 369.901258,82.504018 C372.421258,82.933018 375.111258,83.440018 377.801258,84.494018 C380.821258,85.676018 383.461258,87.456018 385.221258,89.509018 C385.311258,89.622018 385.421258,89.749018 385.501258,89.822018 C386.081258,89.602018 386.501258,89.121018 386.801258,88.347018 C387.781258,85.821018 387.021258,81.297018 385.691258,78.939018 C379.991258,68.681018 373.731258,62.650018 363.371258,57.422018 C354.531258,53.085018 347.943258,49.851018 339.829258,44.649018 C340.051258,45.354018 340.281258,46.010018 340.389258,46.271018 C341.445258,48.241018 342.587258,50.006018 343.880258,51.667018 C346.501258,55.030018 350.080258,58.643018 354.821258,62.713018 C356.341258,64.014018 357.951258,65.337018 359.601258,66.647018 C360.051258,66.998018 360.191258,67.609018 359.941258,68.118018 C359.701258,68.627018 359.131258,68.904018 358.581258,68.775018 C353.341258,67.583018 348.751258,67.716018 343.721258,67.996018 L343.580258,67.996018 C342.621258,67.927018 335.279258,68.442018 330.743258,68.794018 Z M385.451258,92.270018 C385.161258,92.270018 384.881258,92.212018 384.601258,92.096018 C384.041258,91.860018 383.681258,91.434018 383.411258,91.122018 C381.871258,89.327018 379.581258,87.787018 376.921258,86.747018 C374.441258,85.777018 371.891258,85.299018 369.501258,84.891018 C368.041258,84.644018 366.621258,84.423018 365.241258,84.207018 C363.091258,83.871018 361.051258,83.554018 358.991258,83.164018 C354.191258,82.257018 350.195258,81.106018 346.051258,79.431018 C338.527258,76.414018 332.614258,72.787018 326.352258,68.947018 C326.069258,68.773018 325.869258,68.492018 325.800258,68.167018 C325.732258,67.843018 325.799258,67.504018 325.986258,67.231018 C326.370258,66.671018 326.370258,66.671018 334.659258,66.078018 C337.547258,65.871018 342.484258,65.536018 343.647258,65.577018 C347.357258,65.372018 350.841258,65.246018 354.541258,65.649018 C354.101258,65.282018 353.671258,64.914018 353.241258,64.549018 C348.381258,60.373018 344.694258,56.647018 341.971258,53.155018 C340.583258,51.372018 339.360258,49.479018 338.233258,47.370018 L338.206258,47.318018 C338.184258,47.271018 335.974258,42.437018 337.326258,41.265018 C337.787258,40.866018 338.429258,40.842018 338.964258,41.196018 C347.995258,47.182018 354.541258,50.394018 364.451258,55.256018 C375.161258,60.660018 381.921258,67.178018 387.801258,77.757018 C389.431258,80.642018 390.321258,85.943018 389.051258,89.223018 C388.471258,90.710018 387.481258,91.722018 386.181258,92.146018 C385.941258,92.229018 385.691258,92.270018 385.451258,92.270018 L385.451258,92.270018 Z" id="Fill-73" fill="#1A2F33"></path>
        <path d="M324.989258,58.782018 C325.954258,58.782018 326.939258,58.824018 327.941258,58.929018 C331.164258,59.265018 334.170258,60.267018 336.405258,61.752018 C336.528258,61.834018 336.668258,61.927018 336.763258,61.977018 C337.267258,61.609018 337.545258,61.037018 337.627258,60.217018 C337.896258,57.563018 335.974258,53.467018 334.075258,51.576018 C325.867258,43.280018 318.230258,39.111018 306.831258,36.695018 C296.673258,34.650018 289.672258,33.178018 280.732258,30.237018 C281.127258,30.849018 281.511258,31.409018 281.682258,31.630018 C283.227258,33.274018 284.803258,34.700018 286.497258,35.985018 C289.944258,38.601018 294.362258,41.196018 300.004258,43.920018 C301.811258,44.789018 303.715258,45.659018 305.663258,46.503018 C306.184258,46.728018 306.478258,47.284018 306.371258,47.840018 C306.265258,48.396018 305.787258,48.804018 305.222258,48.822018 C299.859258,48.996018 295.453258,50.268018 290.658258,51.790018 L290.529258,51.823018 C289.588258,52.011018 282.661258,54.292018 278.365258,55.745018 C283.908258,57.418018 289.711258,58.998018 296.260258,59.826018 C300.558258,60.380018 304.566258,60.475018 309.268258,60.129018 C311.398258,59.975018 313.506258,59.748018 315.738258,59.508018 C317.061258,59.365018 318.410258,59.220018 319.805258,59.086018 C321.460258,58.927018 323.193258,58.782018 324.989258,58.782018 Z M336.796258,64.425018 C336.701258,64.425018 336.607258,64.419018 336.512258,64.406018 C335.908258,64.327018 335.445258,64.018018 335.105258,63.794018 C333.151258,62.495018 330.532258,61.632018 327.690258,61.335018 C325.046258,61.059018 322.461258,61.264018 320.036258,61.495018 C318.652258,61.628018 317.311258,61.772018 315.996258,61.914018 C313.743258,62.156018 311.614258,62.385018 309.444258,62.541018 C304.577258,62.897018 300.417258,62.801018 295.953258,62.227018 C287.799258,61.194018 280.849258,59.052018 274.127258,56.980018 C273.807258,56.880018 273.541258,56.652018 273.395258,56.350018 C273.248258,56.047018 273.235258,55.698018 273.357258,55.385018 C273.594258,54.771018 273.594258,54.771018 281.437258,52.166018 C284.173258,51.256018 288.861258,49.718018 289.982258,49.466018 C293.499258,48.351018 296.822258,47.365018 300.480258,46.824018 C299.963258,46.583018 299.454258,46.341018 298.953258,46.100018 C293.163258,43.305018 288.611258,40.628018 285.034258,37.914018 C283.218258,36.535018 281.533258,35.009018 279.885258,33.250018 L279.847258,33.209018 C279.813258,33.167018 276.392258,29.041018 277.397258,27.568018 C277.741258,27.064018 278.354258,26.872018 278.968258,27.087018 C289.059258,30.578018 295.971258,32.041018 307.321258,34.325018 C319.086258,36.818018 327.331258,41.320018 335.790258,49.869018 C338.119258,52.188018 340.384258,57.002018 340.035258,60.461018 C339.875258,62.044018 339.185258,63.280018 338.039258,64.035018 C337.665258,64.290018 337.237258,64.425018 336.796258,64.425018 L336.796258,64.425018 Z" id="Fill-74" fill="#1A2F33"></path>
        <path d="M224.191258,55.699018 C230.171258,56.011018 236.041258,56.160018 242.648258,55.394018 C246.954258,54.906018 250.859258,54.036018 255.308258,52.576018 C257.365258,51.904018 259.381258,51.163018 261.515258,50.377018 C262.720258,49.934018 263.948258,49.483018 265.219258,49.030018 C267.625258,48.177018 270.209258,47.310018 273.043258,46.904018 C276.244258,46.445018 279.414258,46.679018 281.966258,47.561018 C282.108258,47.611018 282.267258,47.665018 282.373258,47.690018 C282.740258,47.234018 282.856258,46.640018 282.734258,45.865018 C282.321258,43.227018 279.353258,39.707018 276.978258,38.323018 C266.818258,32.302018 258.322258,30.114018 246.645258,30.498018 C236.339258,30.944018 229.211258,31.188018 219.737258,30.464018 C220.274258,30.955018 220.783258,31.395018 221.005258,31.565018 C222.936258,32.789018 224.845258,33.796018 226.835258,34.643018 C230.879258,36.360018 235.849258,37.820018 242.026258,39.108018 C244.022258,39.523018 246.095258,39.909018 248.190258,40.258018 C248.749258,40.350018 249.168258,40.819018 249.199258,41.385018 C249.231258,41.951018 248.865258,42.463018 248.321258,42.616018 C243.176258,44.065018 239.411258,46.251018 235.025258,48.957018 L234.906258,49.021018 C234.044258,49.427018 227.960258,53.272018 224.191258,55.699018 Z M232.480258,58.367018 C228.311258,58.367018 224.321258,58.137018 220.403258,57.910018 C220.074258,57.891018 219.766258,57.738018 219.551258,57.487018 C219.337258,57.235018 219.236258,56.908018 219.269258,56.579018 C219.338258,55.907018 219.338258,55.907018 226.252258,51.510018 C228.657258,49.980018 232.782258,47.379018 233.804258,46.865018 C236.904258,44.955018 239.851258,43.214018 243.231258,41.820018 C242.660258,41.708018 242.093258,41.593018 241.533258,41.477018 C235.198258,40.158018 230.081258,38.650018 225.889258,36.870018 C223.761258,35.964018 221.726258,34.890018 219.669258,33.584018 L219.620258,33.551018 C219.575258,33.519018 215.149258,30.374018 215.777258,28.667018 C215.988258,28.094018 216.551258,27.773018 217.188258,27.821018 C227.950258,28.808018 235.357258,28.563018 246.553258,28.081018 C258.584258,27.675018 267.752258,30.043018 278.204258,36.236018 C281.107258,37.929018 284.585258,42.054018 285.125258,45.490018 C285.366258,47.026018 285.020258,48.366018 284.124258,49.366018 C283.759258,49.783018 283.275258,50.044018 282.733258,50.108018 C282.139258,50.190018 281.606258,49.998018 281.218258,49.863018 C278.980258,49.090018 276.216258,48.893018 273.386258,49.301018 C270.770258,49.674018 268.413258,50.465018 266.029258,51.310018 C264.767258,51.759018 263.547258,52.209018 262.350258,52.648018 C260.195258,53.441018 258.158258,54.190018 256.061258,54.875018 C251.449258,56.389018 247.398258,57.290018 242.923258,57.797018 C239.293258,58.218018 235.828258,58.367018 232.480258,58.367018 L232.480258,58.367018 Z" id="Fill-75" fill="#1A2F33"></path>
        <path d="M191.004258,47.900018 C191.530258,47.900018 192.001258,48.243018 192.158258,48.752018 C192.326258,49.293018 192.096258,49.877018 191.606258,50.160018 C187.017258,52.796018 183.835258,55.946018 180.442258,59.493018 L180.336258,59.590018 C179.614258,60.187018 174.745258,65.404018 171.750258,68.673018 C177.695258,67.491018 183.463258,66.190018 189.575258,63.886018 C193.610258,62.377018 197.156258,60.601018 201.074258,58.125018 C202.868258,56.993018 204.608258,55.805018 206.449258,54.548018 C207.511258,53.823018 208.594258,53.082018 209.720258,52.331018 C211.824258,50.931018 214.097258,49.476018 216.733258,48.411018 C219.714258,47.202018 222.843258,46.676018 225.545258,46.924018 C225.690258,46.937018 225.850258,46.953018 225.958258,46.953018 C226.172258,46.451018 226.129258,45.878018 225.832258,45.192018 C224.775258,42.748018 220.859258,39.952018 218.196258,39.177018 C206.742258,35.758018 197.929258,35.665018 186.749258,38.838018 C176.870258,41.752018 170.014258,43.711018 160.753258,45.322018 C161.410258,45.668018 162.024258,45.972018 162.277258,46.078018 C164.480258,46.793018 166.595258,47.303018 168.741258,47.633018 C173.100258,48.306018 178.298258,48.517018 184.636258,48.275018 C186.733258,48.192018 188.843258,48.067018 190.907258,47.904018 L191.004258,47.900018 Z M168.446258,71.761018 C168.199258,71.761018 167.955258,71.686018 167.750258,71.542018 C167.481258,71.352018 167.300258,71.063018 167.249258,70.738018 C167.144258,70.065018 167.144258,70.065018 172.664258,64.114018 C174.581258,62.048018 177.872258,58.529018 178.736258,57.776018 C181.223258,55.177018 183.610258,52.780018 186.516258,50.612018 C185.921258,50.643018 185.325258,50.669018 184.730258,50.693018 C178.236258,50.939018 172.884258,50.720018 168.373258,50.025018 C166.083258,49.672018 163.831258,49.129018 161.487258,48.367018 L161.441258,48.351018 C161.389258,48.332018 156.256258,46.375018 156.437258,44.565018 C156.487258,44.065018 156.865258,43.508018 157.596258,43.394018 C168.204258,41.714018 174.992258,39.782018 186.076258,36.514018 C197.606258,33.244018 207.107258,33.345018 218.880258,36.856018 C222.181258,37.816018 226.659258,41.011018 228.054258,44.232018 C228.657258,45.629018 228.664258,46.981018 228.073258,48.143018 C227.824258,48.646018 227.417258,49.021018 226.900258,49.214018 C226.343258,49.425018 225.782258,49.377018 225.374258,49.340018 C222.996258,49.123018 220.272258,49.588018 217.640258,50.653018 C215.213258,51.634018 213.143258,52.960018 211.062258,54.345018 C209.945258,55.090018 208.868258,55.825018 207.813258,56.546018 C205.953258,57.816018 204.198258,59.017018 202.365258,60.171018 C198.301258,62.740018 194.618258,64.584018 190.426258,66.151018 C182.922258,68.980018 176.001258,70.320018 168.676258,71.739018 L168.446258,71.761018 L168.446258,71.761018 Z" id="Fill-76" fill="#1A2F33"></path>
        <path d="M137.939258,69.382018 C138.346258,69.382018 138.737258,69.587018 138.963258,69.946018 C139.264258,70.425018 139.194258,71.046018 138.796258,71.447018 C135.060258,75.188018 132.833258,79.074018 130.513258,83.400018 L130.434258,83.529018 C129.888258,84.297018 126.574258,90.699018 124.565258,94.675018 C130.176258,91.830018 135.236258,89.122018 140.509258,85.313018 C144.005258,82.803018 146.955258,80.173018 150.080258,76.781018 C151.484258,75.261018 152.819258,73.707018 154.232258,72.063018 C155.095258,71.060018 155.974258,70.036018 156.894258,68.992018 C158.554258,67.111018 160.365258,65.135018 162.635258,63.448018 C165.198258,61.542018 168.087258,60.260018 170.771258,59.838018 C170.896258,59.819018 171.052258,59.795018 171.159258,59.769018 C171.224258,59.245018 171.031258,58.710018 170.574258,58.127018 C168.900258,55.999018 164.349258,54.238018 161.548258,54.143018 C149.540258,53.654018 141.003258,55.778018 131.081258,61.704018 C122.716258,66.831018 116.467258,70.660018 107.696258,74.842018 C108.433258,75.006018 109.122258,75.141018 109.409258,75.180018 C111.715258,75.282018 113.890258,75.215018 116.061258,74.968018 C120.463258,74.464018 125.394258,73.338018 131.577258,71.425018 C133.497258,70.829018 135.504258,70.164018 137.538258,69.450018 C137.670258,69.404018 137.806258,69.382018 137.939258,69.382018 Z M121.897258,98.583018 C121.751258,98.583018 121.605258,98.557018 121.465258,98.504018 C121.149258,98.382018 120.897258,98.134018 120.772258,97.819018 C120.530258,97.207018 120.530258,97.207018 124.244258,89.979018 C125.539258,87.460018 127.768258,83.166018 128.410258,82.199018 C130.120258,79.014018 131.787258,76.054018 134.032258,73.185018 C133.447258,73.374018 132.866258,73.559018 132.293258,73.736018 C125.962258,75.695018 120.893258,76.850018 116.335258,77.372018 C114.019258,77.636018 111.699258,77.705018 109.252258,77.595018 L109.193258,77.590018 C109.137258,77.585018 103.667258,77.038018 103.367258,75.253018 C103.266258,74.653018 103.581258,74.089018 104.169258,73.820018 C114.181258,69.222018 120.407258,65.408018 129.828258,59.634018 C140.074258,53.517018 149.290258,51.227018 161.638258,51.725018 C165.098258,51.842018 170.282258,53.843018 172.476258,56.631018 C173.413258,57.825018 173.771258,59.121018 173.511258,60.380018 C173.402258,60.937018 173.102258,61.407018 172.646258,61.725018 C172.152258,62.074018 171.588258,62.161018 171.177258,62.225018 C168.842258,62.591018 166.332258,63.714018 164.079258,65.390018 C161.993258,66.939018 160.349258,68.735018 158.709258,70.593018 C157.795258,71.629018 156.924258,72.644018 156.067258,73.640018 C154.640258,75.301018 153.291258,76.872018 151.859258,78.422018 C148.620258,81.938018 145.556258,84.669018 141.923258,87.277018 C135.615258,91.834018 129.671258,94.820018 122.791258,98.278018 L122.441258,98.454018 C122.270258,98.539018 122.083258,98.583018 121.897258,98.583018 L121.897258,98.583018 Z" id="Fill-77" fill="#1A2F33"></path>
        <path d="M92.525258,104.684018 C92.811258,104.684018 93.096258,104.784018 93.323258,104.984018 C93.748258,105.357018 93.858258,105.975018 93.587258,106.473018 C90.986258,111.247018 89.895258,115.739018 88.831258,120.694018 L88.790258,120.842018 C88.461258,121.775018 87.009258,129.122018 86.157258,133.676018 C90.787258,129.132018 94.893258,124.971018 98.938258,119.686018 C101.628258,116.194018 103.764258,112.759018 105.865258,108.545018 C106.781258,106.715018 107.623258,104.880018 108.517258,102.937018 C109.105258,101.658018 109.705258,100.352018 110.342258,99.013018 C111.433258,96.727018 112.643258,94.305018 114.392258,92.027018 C116.347258,89.474018 118.791258,87.446018 121.274258,86.317018 C121.388258,86.266018 121.535258,86.200018 121.634258,86.145018 C121.557258,85.598018 121.216258,85.114018 120.595258,84.658018 C118.394258,83.043018 113.557258,82.553018 110.861258,83.211018 C99.144258,85.984018 91.491258,90.434018 83.556258,99.082018 L82.865258,99.853018 C76.372258,107.117018 71.530258,112.535018 64.530258,119.075018 C65.295258,119.014018 66.014258,118.937018 66.306258,118.889018 C68.551258,118.292018 70.620258,117.567018 72.634258,116.672018 C76.659258,114.882018 81.099258,112.311018 86.606258,108.582018 C88.279258,107.446018 90.031258,106.213018 91.813258,104.915018 C92.026258,104.761018 92.276258,104.684018 92.525258,104.684018 Z M84.322258,138.375018 L84.174258,138.366018 C83.807258,138.321018 83.483258,138.112018 83.289258,137.799018 C82.721258,136.871018 86.079258,121.858018 86.471258,120.187018 L86.466258,120.186018 C87.255258,116.504018 88.062258,113.066018 89.469258,109.552018 C88.961258,109.904018 88.458258,110.249018 87.963258,110.585018 C82.335258,114.396018 77.778258,117.034018 73.617258,118.884018 C71.470258,119.838018 69.267258,120.608018 66.877258,121.240018 L66.815258,121.254018 C66.759258,121.265018 61.401258,122.360018 60.575258,120.739018 C60.297258,120.196018 60.429258,119.562018 60.908258,119.124018 C68.930258,111.812018 73.755258,106.414018 81.062258,98.241018 L81.762258,97.457018 C89.962258,88.521018 98.226258,83.715018 110.296258,80.858018 C113.632258,80.041018 119.145258,80.591018 122.027258,82.707018 C123.272258,83.622018 123.977258,84.794018 124.062258,86.099018 C124.105258,86.663018 123.944258,87.198018 123.591258,87.628018 C123.200258,88.105018 122.674258,88.341018 122.290258,88.514018 C120.148258,89.487018 118.031258,91.256018 116.312258,93.500018 C114.704258,95.591018 113.561258,97.885018 112.527258,100.054018 C111.895258,101.382018 111.299258,102.677018 110.715258,103.949018 C109.814258,105.909018 108.962258,107.762018 108.030258,109.626018 C105.857258,113.984018 103.645258,117.542018 100.857258,121.160018 C96.220258,127.220018 91.549258,131.788018 86.141258,137.077018 L85.167258,138.030018 C84.941258,138.252018 84.636258,138.375018 84.322258,138.375018 L84.322258,138.375018 Z" id="Fill-78" fill="#1A2F33"></path>
        <path d="M58.483258,153.807018 C58.646258,153.807018 58.810258,153.840018 58.967258,153.909018 C59.491258,154.138018 59.783258,154.702018 59.666258,155.264018 C58.474258,160.988018 58.659258,165.968018 59.001258,171.418018 L59.001258,171.565018 C58.938258,172.648018 59.574258,180.639018 60.010258,185.647018 C63.180258,179.338018 65.946258,173.708018 68.365258,166.993018 C69.990258,162.527018 71.102258,158.333018 71.970258,153.391018 C72.341258,151.297018 72.645258,149.232018 72.966258,147.046018 C73.190258,145.520018 73.417258,143.968018 73.675258,142.368018 C74.098258,139.748018 74.599258,136.956018 75.661258,134.141018 C76.843258,131.002018 78.636258,128.248018 80.707258,126.385018 C80.828258,126.275018 80.974258,126.145018 81.051258,126.056018 C80.831258,125.497018 80.359258,125.100018 79.603258,124.829018 C77.010258,123.899018 72.365258,124.862018 69.944258,126.348018 C61.169258,131.659018 54.095258,137.879018 48.064258,150.977018 L46.884258,153.633018 C42.886258,162.634018 39.906258,169.347018 35.277258,178.047018 C35.978258,177.724018 36.630258,177.402018 36.899258,177.249018 C38.875258,175.862018 40.658258,174.401018 42.347258,172.781018 C45.658258,169.599018 49.206258,165.462018 53.509258,159.764018 C54.844258,157.992018 56.187258,156.158018 57.495258,154.316018 C57.730258,153.988018 58.101258,153.807018 58.483258,153.807018 Z M59.213258,191.138018 C58.852258,191.138018 58.507258,190.977018 58.276258,190.694018 C57.657258,189.936018 56.677258,173.312018 56.592258,171.570018 L56.586258,171.570018 C56.334258,167.546018 56.165258,163.768018 56.547258,159.741018 C56.178258,160.238018 55.810258,160.732018 55.441258,161.221018 C51.059258,167.025018 47.430258,171.253018 44.023258,174.526018 C42.231258,176.244018 40.342258,177.793018 38.245258,179.260018 L38.188258,179.298018 C38.139258,179.328018 33.397258,182.232018 32.066258,180.970018 C31.724258,180.648018 31.463258,180.018018 31.851258,179.305018 C37.202258,169.473018 40.336258,162.417018 44.672258,152.650018 L45.859258,149.980018 C51.319258,138.122018 57.717258,130.922018 68.684258,124.281018 C71.632258,122.471018 77.056258,121.342018 80.423258,122.552018 C81.907258,123.086018 82.923258,124.049018 83.363258,125.334018 C83.550258,125.858018 83.540258,126.413018 83.330258,126.925018 C83.096258,127.491018 82.673258,127.870018 82.365258,128.148018 C80.536258,129.794018 78.974258,132.211018 77.925258,134.994018 C76.943258,137.600018 76.467258,140.256018 76.065258,142.753018 C75.809258,144.340018 75.582258,145.882018 75.361258,147.398018 C75.036258,149.602018 74.731258,151.684018 74.354258,153.810018 C73.459258,158.897018 72.314258,163.217018 70.640258,167.817018 C67.988258,175.182018 64.804258,181.506018 61.435258,188.201018 L60.294258,190.470018 C60.111258,190.836018 59.754258,191.086018 59.346258,191.131018 L59.213258,191.138018 L59.213258,191.138018 Z" id="Fill-79" fill="#1A2F33"></path>
        <path d="M51.228258,178.631018 C48.532258,178.631018 44.404258,181.220018 42.562258,183.533018 C35.626258,192.140018 30.583258,201.197018 28.497258,217.438018 L27.975258,221.964018 C26.781258,232.344018 25.818258,240.724018 23.942258,251.696018 C24.504258,251.085018 25.005258,250.512018 25.183258,250.284018 C26.683258,247.987018 27.973258,245.695018 29.127258,243.275018 C31.372258,238.559018 33.524258,232.903018 36.104258,224.937018 C36.876258,222.541018 37.636258,220.089018 38.378258,217.615018 C38.547258,217.056018 39.110258,216.705018 39.670258,216.759018 C40.250258,216.824018 40.703258,217.294018 40.743258,217.877018 C41.210258,224.465018 42.791258,229.808018 44.656258,235.617018 L44.689258,235.744018 C44.938258,236.957018 47.752258,245.333018 49.591258,250.683018 C50.820258,242.512018 51.866258,235.329018 52.287258,227.175018 C52.584258,221.755018 52.472258,216.849018 51.921258,211.265018 C51.691258,208.909018 51.407258,206.620018 51.106258,204.195018 C50.897258,202.503018 50.683258,200.784018 50.485258,199.009018 C50.164258,196.123018 49.870258,193.032018 50.105258,189.743018 C50.363258,186.097018 51.304258,182.650018 52.756258,180.042018 C52.890258,179.800018 53.035258,179.538018 53.047258,179.421018 C52.831258,179.117018 52.432258,178.682018 51.413258,178.634018 L51.228258,178.631018 Z M50.068258,256.873018 C49.748258,256.873018 49.436258,256.746018 49.204258,256.511018 C48.599258,255.896018 42.875258,238.032018 42.357258,236.356018 L42.352258,236.357018 C40.996258,232.135018 39.786258,228.148018 39.024258,223.745018 C38.817258,224.402018 38.610258,225.048018 38.405258,225.681018 C35.792258,233.754018 33.604258,239.501018 31.312258,244.316018 C30.103258,246.848018 28.754258,249.247018 27.184258,251.647018 L27.142258,251.706018 C26.536258,252.523018 23.419258,256.569018 21.792258,255.867018 C21.345258,255.675018 20.877258,255.150018 21.029258,254.305018 C23.250258,241.867018 24.275258,232.961018 25.571258,221.688018 L26.095258,217.146018 C27.968258,202.560018 32.055258,192.715018 40.674258,182.021018 C43.008258,179.086018 47.949258,176.016018 51.526258,176.218018 C53.076258,176.289018 54.302258,176.946018 55.068258,178.114018 C55.376258,178.573018 55.513258,179.115018 55.454258,179.670018 C55.393258,180.277018 55.119258,180.769018 54.901258,181.164018 C53.587258,183.525018 52.752258,186.613018 52.518258,189.915018 C52.298258,193.000018 52.580258,195.967018 52.890258,198.741018 C53.086258,200.505018 53.299258,202.215018 53.508258,203.898018 C53.811258,206.338018 54.096258,208.643018 54.329258,211.030018 C54.892258,216.739018 55.007258,221.758018 54.703258,227.304018 C54.258258,235.940018 53.127258,243.453018 51.818258,252.155018 L51.264258,255.841018 C51.197258,256.295018 50.878258,256.671018 50.442258,256.814018 C50.319258,256.854018 50.193258,256.873018 50.068258,256.873018 L50.068258,256.873018 Z" id="Fill-80" fill="#1A2F33"></path>
    </g>
</svg>